<mxfile host="app.diagrams.net" modified="2023-11-21T18:42:58.311Z" agent="Mozilla/5.0 (Windows NT 10.0; Win64; x64) AppleWebKit/537.36 (KHTML, like Gecko) Chrome/119.0.0.0 Safari/537.36 Edg/119.0.0.0" etag="3ZDGgFaWydF3C1bXKFyH" version="22.1.3" type="device" pages="2">
  <diagram name="Страница — 1" id="o3sYmgAIau1fM3dsohi6">
    <mxGraphModel dx="1624" dy="840" grid="1" gridSize="10" guides="1" tooltips="1" connect="1" arrows="1" fold="1" page="1" pageScale="1" pageWidth="3300" pageHeight="2339" math="0" shadow="0">
      <root>
        <mxCell id="0" />
        <mxCell id="1" parent="0" />
        <mxCell id="aq_8wqEdBt7ugzdirpVi-32" value="" style="shape=image;imageAspect=0;aspect=fixed;verticalLabelPosition=bottom;verticalAlign=top;image=data:image/png,iVBORw0KGgoAAAANSUhEUgAAA5AAAALoCAYAAAAOSho8AAAAAXNSR0IArs4c6QAACg10RVh0bXhmaWxlACUzQ214ZmlsZSUyMGhvc3QlM0QlMjJhcHAuZGlhZ3JhbXMubmV0JTIyJTIwbW9kaWZpZWQlM0QlMjIyMDIzLTExLTIxVDE2JTNBMzUlM0EzNS45NDVaJTIyJTIwYWdlbnQlM0QlMjJNb3ppbGxhJTJGNS4wJTIwKFdpbmRvd3MlMjBOVCUyMDEwLjAlM0IlMjBXaW42NCUzQiUyMHg2NCklMjBBcHBsZVdlYktpdCUyRjUzNy4zNiUyMChLSFRNTCUyQyUyMGxpa2UlMjBHZWNrbyklMjBDaHJvbWUlMkYxMTkuMC4wLjAlMjBTYWZhcmklMkY1MzcuMzYlMjBFZGclMkYxMTkuMC4wLjAlMjIlMjBldGFnJTNEJTIyVUhCeWNoekpyNWFha05SdnUxWmslMjIlMjB2ZXJzaW9uJTNEJTIyMjIuMS4zJTIyJTIwdHlwZSUzRCUyMmRldmljZSUyMiUyMHBhZ2VzJTNEJTIyMiUyMiUzRSUzQ2RpYWdyYW0lMjBpZCUzRCUyMlkweTNjS3YtNEEyYUlNSElhMGtpJTIyJTIwbmFtZSUzRCUyMlBhZ2UtMSUyMiUzRTdadGZsNW82RU1BJTJGRFklMkI3aHlRSSUyQkFqSSUyRnJtMzZqMHUyJTJGYVZTbFk1RjhHTHNicjk5QTJCSUppMHBTM1I2bDRmSWc0UTREZVRZU1laTmVTdDl2ZDV1RjZPc3dnbkd0U2p2WVpHR29RSVdEcjlLaVN2cFFRaXZaSXM4amdxWmVBZ2VJcSUyRjRFcklEOXZHRWQ2MERpUlpscEI0M1JiT3N6VEZjOUtTaFhtZTdkcUh2V1JKJTJCNnJyY0lFRndkTThURVRwaHpnaXkxSnFEJTJGU0QlMkZBSEhpeVclMkZNdURQdHdyNXdaVmdzd3lqYk5jUUlWOURYcDVscE54YTdUMmNGUFE0bCUyRks4dTIlMkZzclc4c3h5bnBjZ0lzVCUyRmdjSnR2cTJhcjdJcSUyRjhZZk5zbTBhNE9GN1hrTHRieGdRJTJGcmNONXNYZEg5VXRsUzdKSzZDOUFOOFhyVjdmMEdlY0U3eHVpNm43dWNiYkNKSCUyQmxoMVI3YndhY1ZtVWVOOGlzQkxzRDdDRzNoV1VEdEdWVXdyQlM4S0x1JTJGY0NBYmxRWTVFalFWU0dwVGU5M2tCZ1hnQVRhcHlSaUQzcEdzaUY1OWklMkYyc2lUTHFTVENMJTJCRTJvVGZzdm1RcHFSd2dnS2UwSmxzWk9sTkE5JTJGemsweSUyRmRDVFRrQ0JqcFU1SHZzVXF6RkJlZzRpUTVFb1ZKdkVqcHp6bGxoYW5jTFJqRjFJMDcxWTVWSEVYRlphVEthYXZ2Ykhvd0pYcEFmYWpCdW1BTE5tQUhjZ3BOMkJiWU9jJTJGQnczVEc3RmZYS0M2SHRXN1pXaG9sWkRjbGdMVSUyQmswUFdXa3hpczlhcHRzdXVobVdIRkluSmdIN0s2ZGFDTUpUbWY5c2lWSEFmTXNLQ3JJZHNzNDRKTlh4UzRCcUhLUTFGVmdYbyUyQmtnRjR5dkJMJTJCVFBHMTJkYkFUSWJLU1BLTUllQ2lZeWNnSyUyRk5CQUliZ0c0cGQlMkZveldpamh2cGRiUUNnUmh0RFhkREdQN1BwWDc0WEhFYnNZWmpwJTJGNCUyQnJueHBYUUtKSlM5RnJhd2dFVGM3ODkweUxacmdxQ0tTZk5tdjJxUHF4Q0JwdmI5aWg0ZTNnV0YwV0Y3V0duaUpIT093N3hld2FaelIxcFJWVERNV25KNnlnaXplREE1RW9sJTJGMFcwYjR6MUZOR2JpSTVKQnFqTW5KOUo3TG5KU2Z4dThySVhYSyUyQks1Q3IwJTJGZFRrQlBUM2NzaFp4NiUyRk8yUnVUcGVRNnlYTkdvb3A2b2ZwN08lMkZIeWYxcENCNjkybnN4UmRDQktMQlYyYUtZdDQ1bXpsMXdSVGdsYnhOMU9NVWNiJTJCWjcwJTJGSFluNHo4MFJWQmxRWDRxcURXbnFPWnF6Mjc3eDQ5SjNpY1RxNkhxdXdscEpDcW1EZGRLa3FyeTB5Q0lVbG4lMkJnRjVybnptQkNCbHpsTWR5SE9sTVNjQUtYT1k2a0NlSzZ0UkQxTHFJOVdCRkpPY21lJTJCTSUyRkptQTgyclhwTHI0VnRtS1ZEJTJGOHhWU0p6Wm0lMkZHZnBRWEJDRWtyazZkUW9RQTFxJTJCNkxSWmgybExDM3pldThCd3MyRWN5cVdOOVY1cnJrenh0U3BINTEzUjJ5aDc0NHRZRjVJTiUyRjNyZzBVczJYTSUyRlFOclRqVFNlQiUyRjFIUnN2a2ZPYVBkU1FtV0xJcnVSUVdTS0pvdEhWbktyUmdDY1U3N2puMTZTbEM2Rk5SSWwwdDdzdTR6eE5XcW1RTHJ4MGloUW9jaEJvYVQ2Y2klMkZqQ0liNDRSbXJhckdwczc1bXhwNEhyc1hFVkgycElBdVk4QWNxdUolMkZqc2wzUTYxVFFhZ050R3Z4WGo4dlFIRktQbmdNM3IweG40TGdPWDJLT0luJTJGMDBFNiUyRkVhUXppcGdERmFQaGxnTjJvalhvMUdKeVN2VTZQYWQxcXlTWVRHUTFTaHZjMXJGYjBWOVRiUCUyQmpXNEQxZzU0RlJ4dERYNDlLbmVydldWaGp1czFUbVR4bGp0b2RHZzNydVUyT29TdHglMkJ1VWVWeXZ4Y0pESXNuZGhtU09Dc21xZG42aENJVCUyQlBQeUZnZTFyJTJGQk1FJTJCVjhCJTNDJTJGZGlhZ3JhbSUzRSUzQ2RpYWdyYW0lMjBpZCUzRCUyMnN0bWRoSGdsZV9zTDRIYWpKQmpIJTIyJTIwbmFtZSUzRCUyMiVEMCVBMSVEMSU4MiVEMSU4MCVEMCVCMCVEMCVCRCVEMCVCOCVEMSU4NiVEMCVCMCUyMCVFMiU4MCU5NCUyMDIlMjIlM0VuWkt4RG9Jd0VJYWZwbnZ0RWFLckZYVnhZbkJ1YUlVbWhTT2xCdlRwQlF0aXcwQTBhZExrJTJCNyUyRmNYUzhsd012dVpFVmRYRkFxUXhpVkhZRURZV3dUczZpJTJGQnZMd1pCdFJEM0tyNVNqTklOVlBOY0pKdTJ1cG1rQjBpTWJwT29RWlZwWEtYTUNFdGRpRzJnMU4yTFVXdVZxQU5CTm1TYTlhdXNKVEFFcm40S3gwWG95dCUyQjJqbmsxSk05cWcyaFpEWWZpRklDSXNKZzA0UTJKT0JoUWU0UlhTcjJpU1hIVmRtMlA2MFdOJTJGMyUyQkglMkJCeiUyQk90cXR4dk5ZSDMxc3I0YnlmNE9aQzhBQSUzRCUzRCUzQyUyRmRpYWdyYW0lM0UlM0MlMkZteGZpbGUlM0USZVxPAAAgAElEQVR4XuzdDbB1VV0/8M2/ycwQjGkUBnAKSh0m8YWsgchKBK3GRmUgTEUgA0RgMIQIBA1MCSNnEAHfEAEVZVSmprFEzBcEk3xBJjITsgBBZ0JB6MVynv/89rhu6+5nn3vOvXevc89Z+3NnHB/uPWftvT5r7bPPd6+1196h8UOAAAECBAgQIECAAAECBGYQ2GGG13gJAQIECBAgQIAAAQIECBBoIkBu40CAAAECBAgQIECAAAECBKYI7NAGyG3bZMiNdpUddtghADf6du8jQIDARIH4fJnHj8+weSjbxlYJOE9vlfxybnds/WVs9V3OXrk4e/3D7yUC5GabxIG3WUHvJ0BgkoAAqW8Q2LyA8/TmDcdUwtj6y9jqO6a+XKKuAuRAqg68gSAVQ4DAdgICpE5BYPMCztObNxxTCWPrL2Or75j6com6CpADqTrwBoJUDAECAqQ+QKCAgPN0AdSKixxbfxlbfSvuunOpmgA5ELMDbyBIxRAgIEDqAwQKCDhPF0CtuMi+/vKmN72pOf3001fV+vnPf35zxRVXNDvvvPOq37/iFa9o7rvvvpW/ffjDH24OPfTQXrEPfehDzR133LFd2fHi448/vrn00kuLS3fr293fCy64oDnttNNW7cdar7nrrrva+u63336r9j8M77zzzub8889vjjrqqOa6667brm5h+id/8ift32+55ZZVf997772bq666qrn33ntbr/j3/vvv377m5ptvbl760pc2sa/XX399c9lll21X9jOe8YwmvPfcc8/ipjVvQIAcqHWdmAaCVAwBAgKkPkCggIDzdAHUioucFCBvuummVYGxGxRTkIkQEz8RclLASVzxnvjJg2EEq27Z8+TN6xvBMA9nDzzwQBvmDjjggJUQGft77bXXroSx9Jpdd921rVcKkPfff/+qkJcCZF73CH4nn3xyc9FFF61YpfefccYZzQtf+MJeitwsXtDdx/jdLOXM07mWbQmQA7WkE9NAkIohQECA1AcIFBBwni6AWnGRswbIvoASwSb9xGhbdwRxkQNkX1hMoficc85pLr/88rZqxxxzTHPuueeuCsdhkX6/xx57tP+OQPnQQw+thO4hA2S+r7FPfQG82z75PnaDfcXdefCqCZADkfZ90PRdlZp0JWS9Q/rdKzJ9B+QsUwu6UwMmTcXoMkXdulMD5j0tIH1w5NMf+qZYDNTERYrpXuXLNzLL9JEiO6XQhROY5yI6cWzvtddeK1eZ05Sg4447btXv8qvF3WOx+1mQyogpWvlPPjWr7wtV/C6mIcUUpSuvvHJlv/r2Kcrt7nsNnxEL1xmXeIf6ztPpnLzWuXBS/+328+4ITKLqe3+ahpe+wPadU+P96ZzW9/duGUvcNAu567MGyO5nT/SDE088sTnhhBOaCFHpszKfMrnIAbJvNLDbQPH9JD6Xu1N380B3xBFHtAEypr1GgI6ppTGSOGSATME2yo6ffDpr2mcjkGUOLwFyINfuB00cgH3TF6YFyI0O6XcPyFmnFuRBdNJVpz6iSR9+fVfaBiLerphXv/rV7fz6Zb2ClE4yUbF999131b0Fs0wfKeWq3MUTmGeA7H6WRF984xvf2DzpSU9qLr744vY+n/zLw4MPPtgeh4cddthKH+7231mmJ3U/U7oX4PJwmL6Q77LLLqvuZclf03f/jS8Si9e357lHawXItc6Fs3yhjnqk4yL+HVPxUmDoe3/3GOk7p+Y2ixg45tl2W7GtjQbIaO9LLrlk5fMy2u7ggw9eNQ1zUnt276+Mesf9epOmcA7pkuob+59GGifdJzgpQOZhOgXIGKWM+xXjnseoyzXXXNPeAznr991pAx3pu2tsu+9eVJ/7Q/aS/ytrYoCc9IHZvcLbvaE4HwHqu9k4Np2uOq/nZuS0y31X+CZduZvniFj3g2bS9IV5BMhJw/PdqQXxpW+tkcy1PkT6PvzyD5Qbbrhh1c3i6QMwvxKb+kHazlOe8pTmwgsvbLpXVfN+kv4WV/Xe9a53Nd/61rdWRkLzvtcdeYjtx0/3BvboI/HB/pjHPGbly2/q48cee+zKVcQIqfkxEWWlE0TUNT4Y44MrvmjHVcfu6/tCbjrJxJWzqGNMC4kP61mmj7j5u8wH4qKWOs8A2T3u43iICxxxfKfpSunzLa4s911NDsf897OcT/LPlL57gboBMr7g7Ljjju30qPRFJH/NpPuJJu3vora9/RpOYNYAOWv/7e5ZCgoxat4dxe/e35W+aMf/R//dSICc5Yv+cHrjK2nWANk9Z/d9t+0uhLOIFwTyANnXX/MesN4AGd+B0udzlLOeALnWPZDpWP3Yxz7W7t4hhxyy3UI/AmSZY3dTAbI7ypUaKV2JnnZD8KQvCfmqVd1qT7rCF6/byk6Sf9CsNX1hHgFy1qkF3QC52RHI9IF45JFHrroZOrVzXJGND6UITAcddNBKOIu2i99FkIsTad4vUjhLK2bl24j3pGl1Xdd89CLKyG8G7/rkX4bzq2fdAJlPp0sB8g1veENz5plntqFxn332WRU489f3Bch8u/kVylmvdpf5SFDqIgrMM0Dmn195n44ppHGMxrEbCxWk4zj9u3uFPI6zdMX57rvvnrpAQjq244t3vjBDao++AHneeec1Z5999kqwzS/+9C2msIhta5/mJzBrgOyeC2f5TI5zUPrSHf09H4Ga9P78XBRfklOY7BNZxMAxv5bbmi3NGiDz7x9xUbr73arvov4itmeq76TvgnkfjxaZ9R7IdOExHQcxmyUu/s06ArlWgOxe2O8LvluZDbam585nq5sKkNMOgLe//e1rrijVFyCnNfSkK3x9AXKeN8rmHzRrTV8YKkB2h/Sj/ukK16xXhuJDrlvOrMtF9436Trp/sm9/0gdUfAndbbfdVn25XKvd0uhBhNTuFIvufaRpvn33w3AjATKmX3zkIx9pj8oIiylAxtWuuGk7PgjzL97d13cDZP7a+FvsU1y1jnJcVZ7Ph98ybWWeATK/iHLggQeuGmmPPhoXTNJJeqeddloJk90Amffj+EIdx2P3Hsh81kD+mdI3e6QvQMaofUyHSgsnxBeNCKBx8acbbPPyZ73Xe5n6iH2dLrCeeyDzc+Es9/Dmn+Hdz/dZA2R3XYF8Nk7fOXees6ym69b3ilkDZPeCdbpwlmYK9QWyad+fu48EmYduXt9Jt9HkMz5muVWqGzLT6Gz3u+Ystzl0DbqDVvH3jeSKedjWuI1NBci0yMekk/FGRiDzLy/d582sdYWvL0DOs8HyA2+t6QtDBci1pp6uJ0Cmcma5wpp7zjLdJj8Z5n0k9ZvuFNY0hTMPkDEC0n1OULwvAmR+hTf2LZ3A4wtu9wpg/uWz69P97+4U1vjiGzdmp/9PATL++8lPfvLKnPv0paHv9d0A2feFJH0Z6ButmWdftq3FE5h3gEzHUow4RuiLz+J8ynUcD3E/ZPxMGoHsBsj8ynA+Opm+ZMVx94UvfKG9RyZG9rszUSYFyDzEpqmDKUDmS86nVl3r83HxWt4eDSkwywhk37lwlvNjX8BLF0gmvT//jrSeEcj1zBYa0m9sZU0KkGs9B3LSd6Nu2JoUIPvugZzXBa9ufbsL+fUNMHRfk18U7BsMWGuhqUmP8egbMIlzULo1Kb/vsa98q7CWOXI3FSBjl7r3muUdfdI9kOl+uEkBM/+ikFd7rSt8ixIg+wJiXyBKo2Opfn0fJuu5IpPf17PReyC7H3Brdbm1AmT3y+GkL2ypnWOUI//gyOt94403rhrFTvXMR0HSF9CNjkCmixZ54I0PwTSFNa4Cx72WcVUxrawW74kAm8Ji+jIdf+97/SzPgJo2/S6/gOIeyDIfiIta6rwDZPS1CHGx9PoLXvCCdgGH+KyPL7lxP2T8Pl3g2+g9kPlV+7jann+mTLpin+4r647Sp8+c3XfffeU5ZZPOLwLkovby8vs1S4BMoxj5NOppAXJS6EyzZCZdFMz7/CwXZWPf0rS/dBEyzlXzWGClfOss3hb6+svi7eVwezS2+g4nN86SNh0gu2z5h+BGRiDXurK21hW+RQmQfVfWu3XqfnGadCLYaIDsOwF2r8r0Bd31XNWcNUCm0YHYpz/5kz9pzjrrrJXV6fIAmd/PmPebfBp0Wu1xv/32W1l0IH2h7Ibm7pSSte6B7OvD+TS42267rR2BzO8HSwEygmPsY/ykUY++1+cBcq1R6DQVr3vf5qSrdqU/ttK+dq8A9q0K193H7sWlfF/jQlP0hxi96pY9y9L0a124StuZdQr7pNdNm0rcvfKam+Ru+UW17shzfrU2/1t3atq8A2QaTY+gmK8mGSsfP/zww+0MgNSn+6YRdac/zfJZ1v1M6X4uThqBzEcw4yJQMk37lT4v8nNEBM2+1fpKH0/K31qBWQPkeu+BnDZtrnubRih0j5H1Bsh0nt/KB89vbWuW3/rYAtXY6lu+B9W9hYkBcq2h55gW1F1gJDHlV3eHvAdy2hW++BIx7f7Jkk2ZDrz1TF/IR7z6vpDP8qUr1alvFGDa1IK+VVjzk1qUPWkp57VOdvmX+wgDp556anuyTPcrpSka6Yv17bff3m4nbqqOZzrmX57zL+Lx+6OPPrqJ1bbiy1/85NNbp63Cmq7SThuBmDQSmN/XkgfICLYxzz/qFaOSadpc9z6Y/Bjp3iMRf+t+YZ5l+kjJPj3posykCx7JNd6Xh45Ut0nTU6atsNZXx3wBor4LH6nf3H///b3PhcpDZhwH3delOnYfE5G/L3+2V37hKF00Sf0gHSv5CHZ3ld7uAkzdL6TzDpCTvpz2XSCL13YDfd9zIPsWN8hnPcSIZ/zkCyukWSzx+ZivbNkX7vuCbJTXvfC4bM+KLX2Mj6n8WQNkN+DFf/fdwxvnt+iv+ed+7pkuZMZtD/Hv/B7gWZ8DmaYN9p1zJ/X5MbVpybqOLVCNrb4l+84Yyp4YIPtGPLpXzLpfcrrv2cgIZHd0Lg9I3SttffOa+0LRPBrSgbdx5WkjPRsv2Ts3KzDLaGm62T+O3bhnrruE/UYD5KwjiN2wExck4steunCRVoDrWqSQ2H1d+pzLL3xMmzKcO0V4yhcOmBa6+u7T6x4TWxEgN9t3vJ/Aogk4Ty9aiyz2/oytv4ytvovd+xZ/7yYGyL6ryn1Ty7r3OeY32U66BzKNPMUI5Vo3Iye+adNa02ILaYpjGtFYzxfQzTaVA2/jggLkxu1Kv3NSgOy22bQFrtYzmr6ROk26Ot+3zHi3/I1OYc3LyesXv89H7ifdP7XWjIlFGIHcSDt4D4FFFnCeXuTWWbx9G1t/GVt9F6/HLdcerRkgl6sqW7u3Dryt9bf1MgKzBshpC1ytFSC790Cud8W5SSN8s15A2myA7HtMTD5FeVKAXGtKWpjk09qNQJbp30odl4Dz9Ljae7O1HVt/GVt9N9s/xv5+AXKgHuDAGwhSMQslMClAdkPbtAWuSo1AdqfV53jzCJB9U/27o7N9dZ80VT/tf9ddgFyow8LOLKmA8/SSNtwW7fbY+svY6rtF3aqazQqQAzWlA28gSMUslMAs90DGPYfdBVJmCVGbXfRq2mNnSgfISQtYdLfbt8BO/jDmvgbvjmoKkAt1WNiZJRVwnl7Shtui3R5bfxlbfbeoW1WzWQFyoKZ04A0EqZiFEugLed1VWKctYR+r3w49Ajlp2uq8RiDXui+777E9sV+xWuOk1Yu7obPrJUAu1GFhZ5ZUwHl6SRtui3Z7bP1lbPXdom5VzWYFyIGaMh146fECacGheNxELOqTvkCmzc26cMykh3R3dzt/Rlr+t0lf7mdZXGQjNPl+TNqnvNz0ZTtWzYxnZeUPXp70CJG1RmzSMxjz5y6mxZzGsnx/HkbCKpaYjz54yimnNJNWJJ3U1vljVPLXpPvzZl3gqm+UclLZsZ0ov7uaab79vimz3Xsn+0Yg+/rkrPdAdl37lvVPLnnd0n6lRb6693ymftl9RqR7IDfyCeQ9BCYL+IKsd6xHYGz9ZWz1XU9f8NrtBQTIgXpFX4CMxxlMGnWoNUB2v+TvtddezWmnnTZROQ+Q6TmN8eJZfVLBqZzvfe97zXOe85yVbaZnMX71q19tDj/88DX3ZaCusOXFTAqQr3nNa7Z7PuOW76wdmEnACORMTF5EYE0BX5B1kPUIjK2/jK2+6+kLXitAFusD6cCLqXXxE6NpX/7yl9spa33T1vruEUsjGukh3DFSEc+1jJ/0eJR8lCJ/WPdmRiC7DwHPRz7ykZ58H2J08ClPeUpz4YUXNvnjXdJ+xD6nR7TECMuxxx7bHHXUUc11113X1ieNysS/4/f5COTrX//65qSTTmqi/lHHJz7xic2+++67Ev7yh8h3A2TsUzys+eKLL27i+YThFSNw8ZPK6I58deu14447ruxnbpE/liavc3e06aGHHloZ6ZvUXtFPrrrqqia2dfXVV7f1jFHCMIv9z0dL47WpH3Td4l66yy67bKWPxOqfyTn28c/+7M/afviqV72qefOb39z+f3puY7GDQcGDC8wrQA6+4wokQIDAEgts27Ztifd+fbsuQK7Pa+yvNgI5UA9Y68CbFiBjFyIgHHbYYW1IyldojGdl3nnnne1IZvd+tPx1ET76RvtmmcKal3PDDTe0ISbCzb333tv+f0zDjZ8TTzyxOeGEE9p/R+CLh8bHfuXbyPejO5013tetx0EHHbRdgLz88subu+++e2U6awTJvv3Ip6mmEHzIIYc0EbjSVM0UNsMwfFKQTQ9v7z6/L+p13HHHbdcO4ZI/miFv0/zfsb23ve1t7f7usccebbum55J2neNvEVCTwT333NP+d9Q3bSsc0gI1++yzT2sVoTEFxTCN9snbLbZbaoryQIeLYtYpMI8T+zy2sc5qezmBQQX08UE5qy9sbP1lbPWtvgMXrqAAORDwtACZRonyzaURxDws7bnnnqsWHLnxxhtXAmR34ZB8FPMNb3jDxACZRgLzbacRtBRKIjjFFNL8nrb8Ps581Kq7wEc+ZfLKK69c2Y9Jo6L5tNVZAmTsdwpRYRUjimmEMdUpLzOmDqewmEJvvl+5Q3e6Z76aaBoljIDWHbVL96aeeeaZq8JaXl4E8O7zANN9nXlIjDbPrfJ2veaaa5qbbrqpDYmxD2mfLrrootYkBeF8uwLkQAf1AhUzjxP7PLaxQKR2ZYQC+vgIG30TVR5bfxlbfTfRNby1aRoBcqBuMC1AptG3tLk8JHTDRB4GugEyTWVM5aSQNykgTRuB7I6SRbl5mMmnbeaLfeQL3MwSILsLhMR28tG3aYvoxD7FiGdM74yf7n2VeYCMv0eIPPLII1dGMfOAnU8Jjdcmw/h3Xq88QMbf8im48d8x9TW2kYfOboCc1F756G4Ew7UCZPcCQFx4iEB51llntSPBEfwFyIEO5AUtZh4n9nlsY0F57dZIBPTxkTT0QNUcW38ZW30H6iajLUaAHKjpNxMg1zMCmaZydkfENnoP5FojkHlI666WmoemfESybwSyO210vSOQMUIXYe4jH/lI21oxjTafvhq/y8uMgBX7F8Hw4YcfXlnIKEYljzjiiFXTSrsjkJMCZEwlzkcCZx2BnNRe3dHNtQJkmsKcd9Xu4kMC5EAH8oIWM48T+zy2saC8dmskAvr4SBp6oGqOrb+Mrb4DdZPRFiNADtT0mwmQsQsbuQcyf5D6WlNY8+AT2+o+tmDSPZD56GdazTS/BzLdKzjtHshugEwjgOsZgUz3f+6+++4r0zknBao0LTYW7EmL4KSA1g2Q+T2La41A5gEyPY5hv/32226V3bXugczbK7+vc60RyPweyAjNqa3SFFYjkAMdwAtezDxO7PPYxoIz273KBfTxyht44OqNrb+Mrb4Dd5fRFSdADtTkmwmQ6b7H7iqsaeQtwmXfKqx9q592p3ZOm8IaoWTSKqzd33ensKbVSietBps/fzH2NV9RNtjzRW26U1hTqI7/jxDYvU+w22zdEbk8rHXfm0/Lfe1rX9vceuutq1aBjUV8kn0aQcyf4Rf1Pfroo5uPfexjbZjN/3bqqae25aVFfPKpu3l7zToCmfeBqHOy3mmnnVYWH+pOYU2jyn3PxByouytmzgLzOLHPYxtzZrM5AqsE9HEdYj0CY+svY6vvevqC124vIEAO1CvGdOCt9xmNQxBPetj7EGUPWUZ3oaMhy1bWeAXm8fkyj22MtwXVfBEE9PFFaIXl2Yex9Zex1Xd5euJi7qkAOVC7jOnAm3eATKN4acrsQE02SDHdUdp8lHGQDSiEwA9XOyv9PLL0GdZ9TmpqgPyZqH2LYsXr0kyJvNHiokp6NFB+73L+jNn0+jh+4lE/sdJyemZsXlZ6DqpnmTosNiIwpvP0Rny8Z7XA2PrL2Oqrv29OQIDcnN/Kux14A0EqhgCB7QTm8fnSDZDp+aWxMykwxjT2mDLdfZRPvKb7nNr4Xbp3Ov697777rlo9ue/5uN2K921H9yCwUYF5HEcb3TfvWzyBsfWXsdV38Xrccu2RADlQeznwBoJUDAECCxcgY4fy+6lvv/32VY+vSTvcXQ06AmCMJsY9zvH+dH9xvF6A1NHnLeA8PW/x5d7e2PrL2Oq73L1z6/degByoDRx4A0EqhgCBhQyQ+dT17urAscN9I5ARGuMnFvdKz3KNEUwBUiffCgHn6a1QX95tjq2/jK2+y9szF2PPBciB2sGBNxCkYggQWIoAmVaNznc2rdQcv8sf/RP3Psa9kNdff317j2MKkJdddtmquub3WcYfTGF1MAwp4Dw9pGb9ZY2tv4ytvvX34LI1FCAH8nXgDQSpGAIEFjJA5isMd0cg+1Yf7ltop/vIn6hoCpR9zS5AOhiGFHCeHlKz/rLG1l/GVt/6e3DZGgqQA/k68AaCVAwBAgsZIKfdAxlTVO+777722aixSmrfPY75PZLugdTR5y3gPD1v8eXe3tj6y9jqu9y9c+v3XoAcqA0ceANBKoYAgYULkOtdhTVGGg899NAmX8k1KpWH0PibEUidfZ4CztPz1F7+bY2tv4ytvsvfQ7e2BgLkQP4OvIEgFUOAwEIEyFtuuWXVfnSfA3nyySc3F110UZM/2zEC4rXXXtu8/OUvb975znc28Z4999xzpZw8iMb9kAKkzj5PAefpeWov/7bG1l/GVt/l76FbWwMBciB/B95AkIohQGBLAyR+ArUKOE/X2rJl6jW2/jK2+pbpNeMpVYAcqK0deANBKoYAAQFSHyBQQMB5ugBqxUWOrb+Mrb6p637xi19sXvziFzdf/epXm7e85S3NiSeeuGav/vKXv9y87nWvaz75yU82P/jBD5qnPe1pzStf+crm8MMPb34Yqio+Kv6vagLkQM081gNvID7FECCwhsA8Pl/msQ2NTGArBfTxrdRfvm2Prb+Mrb6pR8atF/EIqh//8R9vnvzkJzdXXXVVs8suu/R22Fhx/JRTTmn+53/+p3n2s5/dPOIRj2iD5Le//e3mta99bXPqqaeOJkQKkAN9po31wBuITzEECAiQ+gCBogLO00V5qyt8bP1lbPWNDnv//fc38UzjCIRxv/7f/M3fNFdeeWXzrGc9a7v+HCHxZS97WfONb3yjecc73tEceOCB7Wu+/vWvN0cffXTz3e9+t31vjEiO4UeAHKiVx3jgDUSnGAIEpgjM4/NlHtvQ0AS2UkAf30r95dv22PrL2OobPfIv//Ivm2OOOaY56qijmmc+85ntvyMkxqhkdzpqem3f36+++ur20VXnnHNOc9pppy1fZ9/AHguQG0Dre8sYD7yB6BRDgIAAqQ8QKC7gPF2cuKoNjK2/jK2+27Zta8Pee97znubyyy9v4vFTL3rRi5rvfe97zfve977mCU94wqr+HFNUzz333OYDH/hAe79j/nPrrbe291Huu+++7Qrkj3rUo6o6FiblnqZpdtihaZptgelnYwJjO/A2puRdBAhsRGAeny/z2MZG6u49BIYS0MeHkhxHOWPrL2Or79e+9rXmd3/3d5tHP/rRzfvf//5m1113bc4777x2FLFvMZ0YYYzHT8U9kvnjq+JouOuuu9pnH8e9kzEa+VM/9VPVHyRGIAdq4rEdeAOxKYYAgRkE5vH5Mo9tzFBVLyFQTEAfL0ZbZcFj6y9jq+9ll13WTjuNUcWzzz677cOf+tSnmiOPPLL5+Z//+VWL6cSoZNznGCuw9gXIuP8xprbee++92z3/uMqDox16jLFHI5Cbbt+xHXibBlMAAQIzC3TvxZj5jV5IgAABAhsWGNPMvDF9j3344Yfb+x0/97nPtQvf/Oqv/mrbR9LvP/GJT7TTWp/3vOe1v3/ggQfa+yRvu+223gCZ/n7PPfcIkBs+2kb6xjEdeCNtYtUmsGUC8/h8mcc2tgzQhgn88Ir5mAKBRt+cwNg+E8dU3zTS+PSnP7254oormp133nmls1x88cXNSSed1Lz85S9v3vrWt7aP6jACuf2xZARyc58vK+8e04E3EJliCBCYUWAeny/z2MaM1fUyAkUE9PEirNUWOrb+Mqb6pgVx1uq8T3rSk5r3vve9TYTM+HEP5GotAXKgj7504KUbaW+55ZZVJR9//PHNpZdeunKjbffvz3/+87e7ChIPLI2bctNPPOi0b3ngeN3555/fDpvHT7ynW/7ee++9ath9UtlpGP66667bTqZvH7svinJPP/303iH+WesTyyfHT9rnuDp0xhlntL8Lw/Rz8803tzc7xzSDeH7PpJ9ZXxf7F3Pbu1ejBuoiiiGwYYF5nNjnsY0NA3gjgQEE9PEBEEdUxNj6y1jqG9NMY/GceJ7jc5/73OaRj3zkdr36S1/6UvOZz3xm1f2R8T37j/7oj9rv2i984QtXvccqrFZh3fBHYzdARuBJHSyFsnhYaSwTHAGv7+8HHHDASkCMEHXttdeuzKVOZcQqUXmIih3uC5B5+dNCXio73368J4LXySef3Fx00UXbrTjVB9K3VLAAACAASURBVBXlnHjiie2fYinjPOx2g+WkbcZ78wAZK15FfePKjwC54e7pjUsuMI8T+zy2seTNYPeXXEAfX/IGnPPuj62/jKW+6ZmNRxxxxMoU1W7XSs983GeffdpHeuy+++7NRz/60XaBnb7nQMZ9lPH7SQM9c+66c9mcEciBmNcKkLGJCEB77bVXEx22GyBTaLrzzjtXRinj5t5YGSpfKjhGN/t+v54AuVZY7I7mdQPktJG8+Psll1zSRFCOEJhGBtezzRSI4/932223dsWrsJslQMb2Y9t33HFHG9S7I7Lpd3ffffd2r4sRTCOQAx0MihlcYB4n9nlsY3AYBRJYh4A+vg4sL21XmRzTPbNjqO/3v//95pWvfGVzzTXXtN+3X/KSl/T29Pvvv7/9nvjpT3965XXf/OY329fHSquxgmtaeOfrX/96u0JrrMQaQfJpT3vaKI4eAXKgZl4rQKZprTEqOMsI5KQgMymIrSdArmdUcT2vzUcOY+QxAt/BBx/cjsKut5y+JpkWIOM9EcwPO+ywduQzXn/fffe101Fvv/32lamu6XVphDZ/3Q033GAK60DHg2KGFZjHiX0e2xhWRWkE1iegj6/Pa+yvHlt/GUN9v/jFLzYvfvGLm8c+9rErI4uT+nkMhMQtWS960Yuad77znc2jHvWo5gMf+EBzyimntG959rOf3S6w88lPfrL59re/3cR9laeeemp6vEX1h48AOVATT7sHMg1rT7tHMo3ATboXL41kdqeHTrsHMt2/mIepte4bjP1YT/BL01dPOOGEdtQ0Qm2afjpt5HKWJoh6xxWf7k8+qpiPoOb7Hu9Jf4t7Q5NV1D/ft/ibeyBnaQ2vmbfAPE7s89jGvN1sj0AuoI/rD+sRGFt/GUN9Uyh89atfvXK71KQ+kcJm/D1fTOdv//ZvmwsvvLC58cYbmx/84AftiGOMah5++OGjCY9hIkCu59NkjddOm8Ka3pqPRk4anVtrKuWsAXLSPZDrCYXrfW2aPprqmoe79dxL2cc8bQSyGwzz6b7dAJkvTBR/S4v1xLQEAXJ7/UkXPfJFlfLpw3kJqQ+84Q1vaH/dvX+3r11nPSS725x078Es25h0kSNONmlq+aR+mS5spLqmCzP5/qVFtNKFmfxYyfc7ndzidfl75nFin3YRbD3tnQzy+kSduosPdBft6hqmhbdyiygn9clUZhz/cVxPe10+fb2vn6a/H3fccavu4c4/d/suZuXbnXS8pM+ZPfbYo3ehs76FGWY9FrxuNoF5HEez7YlXLYPA2PrL2Oq7DH1wkfdRgByodTYaIGPz3QVzJt3rmP8+5lnHPZUxErmeKayTpsFG2Snk5V+AZw1+fV/S05euY489tn0Aa3eRnr5tTmqOaQEyvvjNOgI5KSS6B7Jfv3vRI17V7UfTLjbkfTT1r75yZz0cuyPek7Y/KYDk20lBb5dddln1AOAUfrqhJL03H2WP3+V9NK/bQQcdtNL/41iIhabSSH13pDzuIY5nUMVPfszM48S+1mfYett70udafv93MkrTzuM93cW24r/f+MY3No95zGNWrbbc/X0EyFleF58Ta32mTeoL3QCZXwzpLnA2rV/3/T1tNy4mdFf3m/WY8LrpAvM4jqbvhVcsi8DY+svY6rss/XBR91OAHKhlNhMg+0LdtFVY85GR+PdNN93U3u/34IMP9i7Sk1dz0oqo3RVep4WCVOakL0z5fsX9hfnjPdZaVbavSaYFyHjPRu6BzJ1NYZ09QKaAkEbnpvWVvj6Sh8oYoUwXRDZySPYdQ+kCRZTXt3pxHljivoXYn7TwU7o39ilPeUrzrW99a7uR0759zOvTvaCRHwv5A4unrUacfOdxYp/2GZZ/5mykvZN3uoDz9re/vXd0N99Ouqiz4447Ni94wQtWwlW0z+Me97jms5/9bNtm6did9rpZAmRciIpy8j6zVoCMeuUeaYRx0iyQWT4v8z6ykePBe/oF5nEcsa9HYGz9ZWz1raenbk1NBMiB3Kd9+ZoWtvqen7jWcxPzqV/5Mx4nTZ+K7edTpLpl942yzLoKa9/oUvpSFVP10lX1WbY5qTmmBch0P2N3Fdb4fXe6Wz6NLbczAjl7gNzIiFS3DfumY2/0cOz7Up7KjxAWP93ps/m2NjqFNS+je8EkH+medIxMChNd33mc2IccgZxU3+SVP9qoO+KWvzcFwzzIpwsDcaxHm+YBctrrZg2Q5513XnP22WevrIQ9LUBOe1RT3k8mtfkQ94pv9PgZy/vmcRyNxXIM9RxbfxlbfcfQh0vWUYAcSNeBNxCkYhZOYJaFnybdA5lfmMgDeoyU9z2SZqOV74bT9EiZmA4aI0GlA2T3Ykt3xHFSoOq7MJIutOT3A87j82XaPZBr3ceZ2i29ZtrFmLUCZN/CVuGUHg0UoTIW6IrnceWLY0Vgn/a6SfdApv3Otx3LvKeZHdGH0gh5X5v1BcjYz/wn3UM6aZaIALnRo3/2983jOJp9b7xy0QXG1l/GVt9F73+Lvn8C5EAt5MAbCFIxCycwy8JP06Y0RqXye3hj9bL05Xyz0/XyR7FEWd37I0suohP16rt/rRug+gJkd7+7DZ+/5/GPf3zx55FNGoHsa9tp7b2ZEci+AHnRRRc1Z555ZnvvaLr/+8ADD9wuQE573awjkDGqudNOO7X3ocZIZwTWtQLktEc1zTICOc1s4T4YlnCHnKeXsNG2cJfH1l/GVt8t7FpVbFqAHKgZHXgDQSpm4QT6ptx179GdFiiiUmmUJqYZ3nrrre0X880sGDLpPtpZRkO7yBudwto39TyFynxRp3xEMv4ewWTSfZlp33LTWICq9AOt15rCut72XmuaZlooaD33QMb93fH6uB81+s65557bMnVHIKe9bj0BMqa/p1C3++67rywCNmk6fVqcxz2QC/cRtrJDztOL2zaLuGdj6y9jq+8i9rll2icBcqDWcuANBKmYhRMYYhXWVKm0smn3cQ0bqfQsI4tR7iyv20iAXCs0T1qFNVZNnrQ/3VHLPHTGKqRbGSA3cs9r3+rS+UJXs67Cmu4ljYW44v19z7TNF8Ba63XrDZCp/8SjWtLjVrrtZxXWjRy9W/Me5+mtcV/WrY6tv4ytvsvaLxdlvwXIgVrCgTcQpGIWTmDSaFI++hY73X0OaPwuX6QojczF6w4++OBVi9qsd0GdSfdl9j0Lsvt4jb57L2cNkN175GJl4fwnD8b5SGi6x27afufPTdzqeyC7q4hupL27z4Hsts8sz4FMATLdO5ge+9E31TVfibrvdZPugUz9NB/V7D5uJpW30edARtmxkFm0awTh7j2SngNZ/qPPebq8cU1bGFt/GVt9a+qrW1EXAXIgdQfeQJCKIUBgO4F5fL7MYxualsBWCujjW6m/fNseW38ZW32Xr0cu1h4LkAO1x1r3D8Um8mebDbTJtpj8Knz32XOTtpOmysWCE3HfTowIxVXx9a6KmVaL7D4CpPvYjHQlf8h6L1pZefvGCEWMsN1xxx29z7lbtH23P4svMI8T+zy2sfjS9rBmAX285tYdvm5j6y9jq+/wPWZcJQqQA7X3VgXIfPdnXQa+b4n9fIXM/ffffyaVKOeNb3xjE/dnpQewxxsn/X6mQpf0RZMCZFQn7nvzQ2AzAvM4sc9jG5sx8F4CmxXQxzcrOK73j62/jK2+4+rNw9dWgBzIdL0BMo3exebTohDxCIL89+keqLScfKxeefXVV7cjW+leohQaX//61zcnnXRSe19Nel/8O+61ST/pHpvuCGS8Jv523XXXtfes/d7v/V7z+c9/von7iWKf8mfq5Y9cSOXsuOOOzQte8IKVFTVjBO5xj3tc89nPfnYlWOb3QqX7jfbZZ5+V1ShjkYr46T43sG//43WpvCgrAm/sQ3pQfH6PUtcpDC+88MK2nvG3888/vzWb9Iy7/D60qG/axsc//vGV+/vuvffeFecoZ999922e+tSnNvH7+NnMSqMDdU/FLLnAPE7s89jGkjeD3V9yAX18yRtwzrs/tv4ytvrOuTtVtzkBcqAmXU+AzJ8bd9BBB62EqHjOWT6NNEJS/Bx77LHta+6555426OUrCcbf01L2+RTW7mqD+YqOsUphLEwxaQprLEPftx/dkbQUICOUxfL6Ea5iJDNNi43/jpHJCGgR1GLfYzprWtQkfhf1ip8Iq7FfsShJ7Fv8pGXxIyDm+3/77bev/C0tmb/ffvu12+++LqbnRlDcbbfd2qm6xx13XDsiGPsQz3brbqu7BH/+rL60umPUI2+3tN0777xz1cIwA3UtxRBo5nFin8c2NCWBrRTQx7dSf/m2Pbb+Mrb6Ll+PXKw9FiAHao9ugOyusBebSaNckx4y/pa3vKV5zWte0z7jLJ9G2l1CP8pKq1bmD9Ne6x7IfJvTAmRsO93HF0HpxBNPbB/g3Z3amsqM10ZwS2ExgtmRRx65Emy790Cm6Z4pQMYz7iLUrTWNNt//7vPjJpXXdeoG0hT48u3GqGEedrsrPeZ/y6etlrrHdaDuqZglF5jHiX0e21jyZrD7Sy6gjy95A85598fWX8ZW3zl3p+o2J0AO1KTrGYHMR8nSFNF8FDE9DiFNbY1djJG6/MHrswTI7nLzqbxZAmQEthQE04O/8+mrsU/5VNgYPY2QeeWVVzZ77bVXkwfbNAU3psimnwjTKUCmenUD5KT9j8cLxE+aTtoNkPl2UnDvBto88HUDZD5tNt6fptxGuEyPFAgLAXKgg0cxUwXmcWKfxzamVtQLCBQU0McL4lZY9Nj6y9jqW2GXnWuVBMiBuNcTICeNQKYpnmmXJo2s5SOSk0Ygu9NG1zsCmaaiRniK+xn7FoLpjgrGNNZbb721HUGNnxSKr7nmmuamm25auaeyW6++ANkdCVzPCGQetJNld4GhtQJkHhLz7tH3oPc0imkEcqADSTG9AvM4sc9jG5qXwFYK6ONbqb982x5bfxlbfZevRy7WHguQA7XHegLkpHsg+0bJYvfSPZDx77hXML8HMA9q+RTWPECmEcD0/llGIOO1+X2CfSuzdkNpjNylUc7Yx74AmR4GHvcsrjUCmQfI7v7Peg9k/uDxPGjHlNpJAbJ7D2S87tprr23v3wxTI5ADHTCKWZfADz+o1/UeLyZAgACBzQls27ZtcwUs0bsFyCVqrAXYVQFyoEZYT4CMTU5ahTVfrbQ7hXXXXXdt0mqlaUXVfGQtyk3TLyNonnXWWSsrq5566qntNtN9it1FdNKiMLfddlsbkiIw9j3uI+fK/56HtRit7NuvtELs0Ucf3XzsYx9btYhPrFSaTyVNK7SmlWHz/U8BMBbciVVSn/nMZzYPP/xw7yqs6b7TWUcgo94p4Mdqt2n6ap9HHkInPRNzoO6lmJELzOPEPo9tjLwZVX+LBfTxLW6AJdv82PrL2Oq7ZN1x4XZXgByoSUoeeGnKat/UzIF2v7eYdJ/lIj/HsG+BoZImyiawFQIlP19Sfeaxja2ws00C+rg+sBGBsX0mjq2+G+kT3vN/AgLkQL2h5IE37wCZthc06VmQAzENUkw+ehsF5s9wHGQDCiGwYAIlP198uV6wxrY7xQTmcRwV23kFz11gbP1lbPWde4eqbIMC5EAN6sAbCFIxBAhsJzCPz5d5bEPTEthKAX18K/WXb9tj6y9jq+/y9cjF2mMBcqD2cOANBKkYAgQESH2AQAEB5+kCqBUXObb+Mrb6Vtx151I1AXIgZgfeQJCKIUBAgNQHCBQQcJ4ugFpxkWPrL2Orb8Vddy5VEyAHYnbgDQSpGAIEBEh9gEABAefpAqgVFzm2/jK2+lbcdedSNQFyIGYH3kCQiiFAYEsDZDxOJx4HFI/dyX/SYlXp72eccUYTj99JP/ljbfJH4aS/xyN34vFD8Rie+PvJJ5/cPsqn+4zZvtWf88cbRXnpMUb5/sXiWvFon/QYor59SK+/4IILmu6zYeNvaQGxeHxQ/OT7HP8d+/G2t71tZRvxu/zxQ33Py9WdF0fAeXpx2mIZ9mRs/WVs9V2GPrjI+yhADtQ6DryBIBVDgMBCBMg8IOYrQUeoioA5LUB2A2IEw/i59NJL1xUgI7Rde+21K+GzL8DG/p144olt+fvuu2/TffRQlHHTTTetWlW6+2zYVO5hhx228v5uKE1BNl/5WYBcngPWeXp52moR9nRs/WVs9V2EPrbM+yBADtR6DryBIBVDgMDCBcjYoTQyeMQRR2woQEYYi9HBeDTQ7bffPtMI5KTRzrysnXfeuQ2kl1xySRPPyo2Qd/nll7cjnelnlgCZj6DmDZD/PpVzzz33rARoAXJ5Dljn6eVpq0XY07H1l7HVdxH62DLvgwA5UOs58AaCVAwBAgsXIPMgt5kRyL322qsd3Zt1CmsExfPPP39l9HFS14hgFz9RdgTdgw8+eLvptWuNQO60007NUUcd1QbQfFpulJnvwzXXXNPceeedbfkpDD/44IPNMccc05x77rnbTcfVlRdLwHl6sdpj0fdmbP1lbPVd9P636PsnQA7UQg68gSAVQ4DAQgTI7j2Qcd9gBLSN3gP5/Oc/f2UK6XoCZApqMdLY95Omr55wwgltgIvAd/3117dTZWcdgVwrQOZTXVOAjFAbgfOAAw5oYkRWgFyOg9Z5ejnaaVH2cmz9ZWz1XZR+tqz7IUAO1HIOvIEgFUOAwEIEyO49jmmnZg2Q3Xsg85G8u+++e6YprLOMQE5bsCf2e9oU1vUGyHQf5znnnNOcd955zdlnn20EcgmOW+fpJWikBdrFsfWXsdV3gbraUu6KADlQsznwBoJUDAECCx0g8wV18ume0xbJye8VjArOsgrrpLCa7nm8+OKL23sR4ycfceyu5DotQMb9krPeAxlTWNO2Yjv33Xdf89BDDwmQS3DcOk8vQSMt0C6Orb+Mrb4L1NWWclcEyIGazYE3EKRiCBBY6AAZO5eCUyyIkxaxifsHY5prhMq+KaobGYFMo4d9q7DGaqlrLeiT3/M4S4CcdRXWPECm99x///2rHu2hCy+mgPP0YrbLou7V2PrL2Oq7qP1uWfZLgByopRx4A0EqhgCBhQ+QKURedtllK/uaP5uxb1rp3nvvveYzGtPfr7zyyiYttpMK7z4HMt2POWmKa9p+CrSzBMjY1izPgcwDZLyn+6gP3XdxBZynF7dtFnHPxtZfxlbfRexzy7RPAuRAreXAGwhSMQQIbGmAxE+gVgHn6Vpbtky9xtZfxlbfMr1mPKUKkAO1tQNvIEjFECAgQOoDBAoIOE8XQK24yLH1l7HVt+KuO5eqCZADMTvwBoJUDAECAqQ+QKCAgPN0AdSKixxbfxlbfSvuunOpmgA5ELMDbyBIxRAgIEDqAwQKCDhPF0CtuMix9Zex1bfirjuXqgmQAzE78AaCVAwBAgKkPkCggIDzdAHUioscW38ZW30r7rpzqZoAORCzA28gSMUQICBA6gMECgg4TxdArbjIsfWXsdW34q47l6oJkAMxO/AGglQMAQICpD5AoICA83QB1IqLHFt/GVt9K+66c6maADkQswNvIEjFECAgQOoDBAoIOE8XQK24yLH1l7HVt+KuO5eqrQqQc9mijRAgQIAAAQIECBAgQIDAMgvssEPTNNu2bdu2zJWw7wQIECBAgAABAgQIECBQUMAU1oK4iiZAgAABAgQIECBAgEBNAgJkTa2pLgQIECBAgAABAgQIECgoIEAWxFU0AQIECBAgQIAAAQIEahIQIGtqTXUhQIAAAQIECBAgQIBAQQEBsiCuogkQIECAAAECBAgQIFCTgABZU2uqCwECBAgQIECAAAECBAoKCJAFcRVNgAABAgQIECBAgACBmgQEyJpaU10IECBAgAABAgQIECBQUECALIiraAIECBAgQIAAAQIECNQkIEDW1JrqQoAAAQIECBAgQIAAgYICAmRBXEUTIECAAAECBAgQIECgJgEBsqbWVBcCBAgQIECAAAECBAgUFBAgC+IqmgABAgQIECBAgAABAjUJCJA1taa6ECBAgAABAgQIECBAoKCAAFkQV9EECBAgQIAAAQIECBCoSUCArKk11YUAAQIECBAgQIAAAQIFBQTIgriKJkCAAAECBAgQIECAQE0CAmRNrakuBAgQIECAAAECBAgQKCggQBbEVTQBAgQIECBAgAABAgRqEhAga2pNdSFAgAABAgQIECBAgEBBAQGyIK6iCRAgQIAAAQIECBAgUJOAAFlTa6oLAQIECBAgQIAAAQIECgoIkAVxFU2AAAECBAgQIECAAIGaBATImlpTXQgQIECAAAECBAgQIFBQQIAsiKtoAgQIECBAgAABAgQI1CQgQNbUmupCgAABAgQIECBAgACBggICZEFcRRMgQIAAAQIECBAgQKAmAQGyptZUFwIECBAgQIAAAQIECBQUECAL4iqaAAECBAgQIECAAAECNQkIkDW1proQIECAAAECBAgQIECgoIAAWRBX0QQIECBAgAABAgQIEKhJQICsqTXVhQABAgQIECBAgAABAgUFBMiCuIomQIAAAQIECBAgQIBATQICZE2tqS4ECBAgQIAAAQIECBAoKCBAFsRVNAECBAgQIECAAAECBGoSECBrak11IUCAAAECBAgQIECAQEEBAbIgrqIJECBAgAABAgQIECBQk4AAWVNrqgsBAgQIECBAgAABAgQKCgiQBXEVTYAAAQIECBAgQIAAgZoEBMiaWlNdCBAgQIAAAQIECBAgUFBAgCyIq2gCBAgQIECAAAECBAjUJCBA1tSa6kKAAAECBAgQIECAAIGCAgJkQVxFEyBAgAABAgQIECBAoCYBAbKm1lQXAgQIECBAgAABAgQIFBQQIAviKpoAAQIECBAgQIAAAQI1CQiQNbWmuhAgQIAAAQIECBAgQKCggABZEFfRBAgQIECAAAECBAgQqElAgKypNdWFAAECBAgQIECAAAECBQUEyIK4iiZAgAABAgQIECBAgEBNAgJkTa2pLgQIECBAgAABAgQIECgoIEAWxFU0AQIECBAgQIAAAQIEahIQIGtqTXUhQIAAAQIECBAgQIBAQQEBsiCuogkQIECAAAECBAgQIFCTgABZU2uqCwECBAgQIECAAAECBAoKCJAFcRVNgAABAgQIECBAgACBmgQEyJpaU10IECBAgAABAgQIECBQUECALIiraAIECBAgQIAAAQIECNQkIEDW1JrqQoAAAQIECBAgQIAAgYICAmRBXEUTIECAAAECBAgQIECgJgEBsqbWVBcCBAgQIECAAAECBAgUFBAgC+IqmgABAgQIECBAgAABAjUJCJA1taa6ECBAgAABAgQIECBAoKCAAFkQV9EECBAgQIAAAQIECBCoSUCArKk11YUAAQIECBAgQIAAAQIFBQTIgriKJkCAAAECBAgQIECAQE0CAmRNrakuBAgQIECAAAECBAgQKCggQBbEVTQBAgQIECBAgAABAgRqEhAga2pNdSFAgAABAgQIECBAgEBBAQGyIK6iCRAgQIAAAQIECBAgUJOAAFlTa6oLAQIECBAgQIAAAQIECgoIkAVxFU2AAAECBAgQIECAAIGaBATImlpTXQgQIECAAAECBAgQIFBQQIAsiKtoAgQIECBAgAABAgQI1CQgQNbUmupCgAABAgQIECBAgACBggICZEFcRRMgQIAAAQIECBAgQKAmAQGyptZUFwIECBAgQIAAAQIECBQUECAL4iqaAAECBAgQIECAAAECNQkIkDW1proQIECAAAECBAgQIECgoIAAWRBX0QQIECBAgAABAgQIEKhJQICsqTXVhQABAgQIECBAgAABAgUFBMiCuIomQIAAAQIECBAgQIBATQICZE2tqS4ECBAgQIAAAQIECBAoKCBAFsRVNAECBAgQIECAAAECBGoSECBrak11IUCAAAECBAgQIECAQEEBAbIgrqIJECBAgAABAgQIECBQk4AAWVNrqgsBAgQIECBAgAABAgQKCgiQBXEVTYAAAQIECBAgQIAAgZoEBMiaWlNdCBAgQIAAAQIECBAgUFBAgCyIq2gCBAgQIECAAAECBAjUJCBA1tSa6kKAAAECBAgQIECAAIGCAgJkQVxFEyBAgAABAgQIECBAoCYBAbKm1lQXAgQIECBAgAABAgQIFBQQIAviKpoAAQIECBAgQIAAAQI1CQiQNbWmuhAgQIAAAQIECBAgQKCggABZEFfRBAgQIECAAAECBAgQqElAgKypNdWFAAECBAgQIECAAAECBQUEyIK4iiZAgAABAgQIECBAgEBNAgJkTa2pLgQIECBAgAABAgQIECgoIEAWxFU0AQIECBAgQIAAAQIEahIQIGtqTXUhQIAAAQIECBAgQIBAQQEBsiCuogkQIECAAAECBAgQIFCTgABZU2uqCwECBAgQIECAAAECBAoKCJAFcRVNgAABAgQIECBAgACBmgQEyJpaU10IECBAgAABAgQIECBQUECALIiraAIECBAgQIAAAQIECNQkIEDW1JrqQoAAAQIECBAgQIAAgYICAmRBXEUTIECAAAECBAgQIECgJgEBsqbWVBcCBAgQIECAAAECBAgUFBAgC+IqmgABAgQIECBAgAABAjUJCJA1taa6ECBAgAABAgQIECBAoKCAAFkQV9EECBAgQIAAAQIECBCoSUCArKk11YUAAQIECBAgQIAAAQIFBQTIgriKJkCAAAECBAgQIECAQE0CAmRNrakuBAgQIECAAAECBAgQKCggQBbEVTQBAgQIECBAgAABAgRqEhAga2pNdSFAgAABAgQIECBAgEBBAQGyIK6iCRAgQIAAAQIECBAgUJOAAFlTa6oLAQIECBAgQIAAAQIECgoIkAVxFU2AAAECBAgQIECAAIGaBATImlpTXQgQIECAAAECBAgQIFBQQIAsiKtoAgQIECBAgAABAgQI1CQgQNbUmupCgAABAgQIECBAgACBggICZEFcRRMgQIAApKmucAAAIABJREFUAQIECBAgQKAmAQGyptZUFwIECBAgQIAAAQIECBQUECAL4iqaAAECBAgQIECAAAECNQkIkDW1proQIECAAAECBAgQIECgoIAAWRBX0QQIECBAgAABAgQIEKhJQICsqTXVhQABAgQIECBAgAABAgUFBMiCuIomQIAAAQIECBAgQIBATQICZE2tqS4ECBAgQIAAAQIECBAoKCBAFsRVNAECBAgQIECAAAECBGoSECBrak11IUCAAAECBAgQIECAQEEBAbIgrqIJECBAgAABAgQIECBQk4AAWVNrqgsBAgQIECBAgAABAgQKCgiQBXEVTYAAAQIECBAgQIAAgZoEBMiaWlNdCBAgQIAAAQIECBAgUFBAgCyIq2gCBAgQIECAAAECBAjUJCBA1tSa6kKAAAECBAgQIECAAIGCAgJkQVxFEyBAgAABAgQIECBAoCYBAbKm1lQXAgQIECBAgAABAgQIFBQQIAviKpoAAQIECBAgQIAAAQI1CQiQNbWmuhAgQIAAAQIECBAgQKCggABZEFfRBAgQIECAAAECBAgQqElAgKypNdWFAAECBAgQIECAAAECBQUEyIK4iiZAgAABAgQIECBAgEBNAgJkTa2pLgQIECBAgAABAgQIECgoIEAWxFU0AQIECBAgQIAAAQIEahIQIGtqTXUhQIAAAQIECBAgQIBAQQEBsiCuogkQIECAAAECBAgQIFCTgABZU2uqCwECBAgQIECAAAECBAoKCJAFcRVNgAABAgQIECBAgACBmgQEyJpaU10IECBAgAABAgQIECBQUECALIiraAIECBAgQIAAAQIECNQkIEDW1JrqQoAAAQIECBAgQIAAgYICAmRBXEUTIECAAAECBAgQIECgJgEBsqbWVBcCBAgQIECAAAECBAgUFBAgC+IqmgABAgQIECBAgAABAjUJCJA1taa6ECBAgAABAgQIECBAoKCAAFkQV9EECBAgQIAAAQIECBCoSUCArKk11YUAAQIECBAgQIAAAQIFBQTIgriKJkCAAAECBAgQIECAQE0CAmRNrakuBAgQIECAAAECBAgQKCggQBbEVTQBAgQIECBAgAABAgRqEhAga2pNdSFAgAABAgQIECBAgEBBAQGyIK6iCRAgQIAAAQIECBAgUJOAAFlTa6oLAQIECBAgQIAAAQIECgoIkAVxFU2AAAECBAgQIECAAIGaBATImlpTXQgQIECAAAECBAgQIFBQQIAsiKtoAgQIECBAgAABAgQI1CQgQNbUmupCgAABAgQIECBAgACBggICZEFcRRMgQIAAAQIECBAgQKAmAQGyptZUFwIECBAgQIAAAQIECBQUECAL4iqaAAECBAgQIECAAAECNQkIkDW1proQIECAAAECBAgQIECgoIAAWRBX0QQIECBAgAABAgQIEKhJQICsqTXVhQABAgQIECBAgAABAgUFBMiCuIomQIAAAQIECBAgQIBATQICZE2tqS4ECBAgQIAAAQIECBAoKCBAFsRVNAECBAgQIECAAAECBGoSECBrak11IUCAAAECBAgQIECAQEEBAbIgrqIJECBAgAABAgQIECBQk4AAWVNrqgsBAgQIECBAgAABAgQKCgiQBXEVTYAAAQIECBAgQIAAgZoEBMiaWlNdCBAgQIAAAQIECBAgUFBAgCyIq2gCBAgQIECAAAECBAjUJCBA1tSa6kKAAAECBAgQIECAAIGCAgJkQVxFEyBAgAABAgQIECBAoCYBAbKm1lQXAgQIECBAgAABAgQIFBQQIAviKpoAAQIECBAgQIAAAQI1CQiQNbWmuhAgQIAAAQIECBAgQKCggABZEFfRBAgQIECAAAECBAgQqElAgKypNdWFAAECBAgQIECAAAECBQUEyIK4iiZAgAABAgQIECBAgEBNAgJkTa2pLgQIECBAgAABAgQIECgoIEAWxFU0AQIECBAgQIAAAQIEahIQIGtqTXUhQIAAAQIECBAgQIBAQQEBsiCuogkQIECAAAECBAgQIFCTgABZU2uqCwECBAgQIECAAAECBAoKCJAFcRVNgAABAgQIECBAgACBmgQEyJpaU10IECBAgAABAgQIECBQUECALIiraAIECBAgQIAAAQIECNQkIEDW1JrqQoAAAQIECBAgQIAAgYICAmRBXEUTIECAAAECBAgQIECgJgEBsqbWVBcCBAgQIECAAAECBAgUFBAgC+IqmgABAgQIECBAgAABAjUJCJA1taa6ECBAgAABAgQIECBAoKCAAFkQV9EECBAgQIAAAQIECBCoSUCArKk11YUAAQIECBAgQIAAAQIFBQTIgriKJkCAAAECBAgQIECAQE0CAmRNrakuBAgQIECAAAECBAgQKCggQBbEVTQBAgQIECBAgAABAgRqEhAga2pNdSFAgAABAgQIECBAgEBBAQGyIK6iCRAgQIAAAQIECBAgUJOAAFlTa6oLAQIECBAgQIAAAQIECgoIkAVxFU2AAAECBAgQIECAAIGaBATImlpTXQgQIECAAAECBAgQIFBQQIAsiKtoAgQIECBAgAABAgQI1CQgQNbUmupCgAABAgQIECBAgACBggICZEFcRRMgQIAAAQIECBAgQKAmAQGyptZUFwIECBAgQIAAAQIECBQUECAL4iqaAAECBAgQIECAAAECNQkIkDW1proQIECAAAECBAgQIECgoIAAWRBX0QQIECBAgAABAgQIEKhJQICsqTXVhQABAgQIECBAgAABAgUFBMiCuIomQIAAAQIECBAgQIBATQICZE2tqS4ECBAgQIAAAQIECBAoKCBAFsRVNAECBAgQIECAAAECBGoSECBrak11IUCAAAECBAgQIECAQEEBAbIgrqIJECBAgAABAgQIECBQk4AAWVNrqgsBAgQIECBAgAABAgQKCgiQBXEVTYAAAQIECBAgQIAAgZoEBMiaWlNdCBAgQIAAAQIECBAgUFBAgCyIq2gCBAgQIECAAAECBAjUJCBA1tSa6kKAAAECBAgQIECAAIGCAgJkQVxFEyBAgAABAgQIECBAoCYBAbKm1lQXAgQIECBAgAABAgQIFBQQIAviKpoAAQIECBAgQIAAAQI1CQiQNbWmuhAgQIAAAQIECBAgQKCggABZEFfRBAgQIECAAAECBAgQqElAgKypNdWFAAECBAgQIECAAAECBQUEyIK4iiZAgAABAgQIECBAgEBNAgJkTa2pLgQIECBAgAABAgQIECgoIEAWxFU0AQIECBAgQIAAAQIEahIQIGtqTXUhQIAAAQIECBAgQIBAQQEBsiCuogkQIECAAAECBAgQIFCTgABZU2uqCwECBAgQIECAAAECBAoKCJAFcRVNgAABAgQIECBAgACBmgQEyJpaU10IECBAgAABAgQIECBQUECALIiraAIECBAgQIAAAQIECNQkIEDW1JrqQoAAAQIECBAgQIAAgYICAmRBXEUTIECAAAECBAgQIECgJgEBsqbWVBcCBAgQIECAAAECBAgUFBAgC+IqmgABAgQIECBAgAABAjUJCJA1taa6ECBAgAABAgQIECBAoKCAAFkQV9EECBAgQIAAAQIECBCoSUCArKk11YUAAQIECBAgQIAAAQIFBQTIgriKJkCAAAECBAgQIECAQE0CAmRNrakuBAgQIECAAAECBAgQKCggQBbEVTQBAgQIECBAgAABAgRqEhAga2pNdSFAgAABAgQIECBAgEBBAQGyIK6iCRAgQIAAAQIECBAgUJOAAFlTa6oLAQIECBAgQIAAAQIECgoIkAVxFU2AAAECBAgQIECAAIGaBATImlpTXQgQIECAAAECBAgQIFBQQIAsiKtoAgQIECBAgAABAgQI1CQgQNbUmupCgAABAgQIECBAgACBggICZEFcRRMgQIAAAQIECBAgQKAmAQGyptZUFwIECBAgQIAAAQIECBQUECAL4iqaAAECBAgQIECAAAECNQkIkDW1proQIECAAAECBAgQIECgoIAAWRBX0QQIECBAgAABAgQIEKhJQICsqTXVhQABAgQIECBAgAABAgUFBMiCuIomQIAAAQIECBAgQIBATQICZE2tqS4ECBAgQIAAAQIECBAoKCBAFsRVNAECBAgQIECAAAECBGoSECBrak11IUCAAAECBAgQIECAQEEBAbIgrqIJECBAgAABAgQIECBQk4AAWVNrqgsBAgQIECBAgAABAgQKCgiQBXEVTYAAAQIECBAgQIAAgZoEBMiaWlNdCBAgQIAAAQIECBAgUFBAgCyIq2gCBAgQIECAAAECBAjUJCBA1tSa6kKAAAECBAgQIECAAIGCAgJkQVxFEyBAgAABAgQIECBAoCYBAbKm1lQXAgQIECBAgAABAgQIFBQQIAviKpoAAQIECBAgQIAAAQI1CQiQNbWmuhAgQIAAAQIECBAgQKCggABZEFfRBAgQIECAAAECBAgQqElAgKypNdWFAAECBAgQIECAAAECBQUEyIK4iiZAgAABAgQIECBAgEBNAgJkTa2pLgQIECBAgAABAgQIECgoIEAWxFU0AQIECBAgQIAAAQIEahIQIGtqTXUhQIAAAQIECBAgQIBAQQEBsiCuogkQIECAAAECBAgQIFCTgABZU2uqCwECBAgQIECAAAECBAoKCJAFcRVNgAABAgQIECBAgACBmgQEyJpaU10IECBAgAABAgQIECBQUECALIiraAIECBAgQIAAAQIECNQkIEDW1JrqQoAAAQIECBAgQIAAgYICAmRBXEUTIECAAAECBAgQIECgJgEBsqbWVBcCBAgQIECAAAECBAgUFBAgC+IqmgABAgQIECBAgAABAjUJCJA1taa6ECBAgAABAgQIECBAoKCAAFkQV9EECBAgQIAAAQIECBCoSUCArKk11YUAAQIECBAgQIAAAQIFBQTIgriKJkCAAAECBAgQIECAQE0CAmRNrakuBAgQIECAAAECBAgQKCggQBbEVTQBAgQIECBAgAABAgRqEhAga2pNdSFAgAABAgQIECBAgEBBAQGyIK6iCRAgQIAAAQIECBAgUJOAAFlTa6oLAQIECBAgQIAAAQIECgoIkAVxFU2AAAECBAgQIECAAIGaBATImlpTXQgQIECAAAECBAgQIFBQQIAsiKtoAgQIECBAgAABAgQI1CQgQNbUmupCgAABAgQIECBAgACBggICZEFcRRMgQIAAAQIECBAgQKAmAQGyptZUFwIECBAgQIAAAQIECBQUECAL4iqaAAECBAgQIECAAAECNQkIkDW1proQIECAAAECBAgQIECgoIAAWRBX0QQIECBAgAABAgQIEKhJQICsqTXVhQABAgQIECBAgAABAgUFBMiCuIomQIAAAQIECBAgQIBATQICZE2tqS4ECBAgQIAAAQIECBAoKCBAFsRVNAECBAgQIECAAAECBGoSECBrak11IUCAAAECBAgQIECAQEEBAbIgrqIJECBAgAABAgQIECBQk4AAWVNrqgsBAgQIECBAgAABAgQKCgiQBXEVTYAAAQIECBAgQIAAgZoEBMiaWlNdCBAgQIAAAQIECBAgUFBAgCyIq2gCBAgQIECAAAECBAjUJCBA1tSa6kKAAAECBAgQIECAAIGCAgJkQVxFEyBAgAABAgQIECBAoCYBAbKm1lQXAgQIECBAgAABAgQIFBQQIAviKpoAAQIECBAgQIAAAQI1CQiQNbWmuhAgQIAAAQIECBAgQKCggABZEFfRBAgQIECAAAECBAgQqElAgKypNdWFAAECBAgQIECAAAECBQUEyIK4iiZAgAABAgQIECBAgEBNAgJkTa2pLgQIECBAgAABAgQIECgoIEAWxFU0AQIECBAgQIAAAQIEahIQIGtqTXUhQIAAAQIECBAgQIBAQQEBsiCuogkQIECAAAECBAgQIFCTgABZU2uqCwECBAgQIECAAAECBAoKCJAFcRVNgAABAgQIECBAgACBmgQEyJpaU10IECBAgAABAgQIECBQUECALIiraAIECBAgQIAAAQIECNQkIEDW1JrqQoAAAQIECBAgQIAAgYICAmRBXEUTIECAAAECBAgQIECgJgEBsqbWVBcCBAgQIECAAAECBAgUFBAgC+IqmgABAgQIECBAgAABAjUJCJA1taa6ECBAgAABAgQIECBAoKCAAFkQV9EECBAgQIAAAQIECBCoSUCArKk11YUAAQIECBAgQIAAAQIFBQTIgriKJkCAAAECBAgQIECAQE0CAmRNrakuBAgQIECAAAECBAgQKCggQBbEVTQBAgQIECBAgAABAgRqEhAga2pNdSFAgAABAgQIECBAgEBBAQGyIK6iCRAgQIAAAQIECBAgUJOAAFlTa6oLAQIECBAgQIAAAQIECgoIkAVxFU2AAAECBAgQIECAAIGaBATImlpTXQgQIECAAAECBAgQIFBQQIAsiKtoAgQIECBAgAABAgQI1CQgQNbUmupCgAABAgQIECBAgACBggICZEFcRRMgQIAAAQIECBAgQKAmAQGyptZUFwIECBAgQIAAAQIECBQUECAL4iqaAAECBAgQIECAAAECNQkIkDW1proQIECAAAECBAgQIECgoIAAWRBX0QQIECBAgAABAgQIEKhJQICsqTXVhQABAgQIECBAgAABAgUFBMiCuIomQIAAAQIECBAgQIBATQICZE2tqS4ECBAgQIAAAQIECBAoKCBAFsRVNAECBAgQIECAAAECBGoSECBrak11IUCAAAECBAgQIECAQEEBAbIgrqIJECBAgAABAgQIECBQk4AAWVNrqgsBAgQIECBAgAABAgQKCgiQBXEVTYAAAQIECBAgQIAAgZoEBMiaWlNdCBAgQIAAAQIECBAgUFBAgCyIq2gCBAgQIECAAAECBAjUJCBA1tSa6kKAAAECBAgQIECAAIGCAgJkQVxFEyBAgAABAgQIECBAoCYBAbKm1lQXAgQIECBAgAABAgQIFBQQIAviKpoAAQIECBAgQIAAAQI1CQiQNbWmuhAgQIAAAQIECBAgQKCggABZEFfRBAgQIECAAAECBAgQqElAgKypNdWFAAECBAgQIECAAAECBQUEyIK4iiZAgAABAgQIECBAgEBNAgJkTa2pLgQIECBAgAABAgQIECgoIEAWxFU0AQIECBAgQIAAAQIEahIQIGtqTXUhQIAAAQIECBAgQIBAQQEBsiCuogkQIECAAAECBAgQIFCTgABZU2uqCwECBAgQIECAAAECBAoKCJAFcRVNgAABAgQIECBAgACBmgQEyJpaU10IECBAgAABAgQIECBQUECALIiraAIECBAgQIAAAQIECNQkIEDW1JrqQoAAAQIECBAgQIAAgYICAmRBXEUTIECAAAECBAgQIECgJgEBsqbWVBcCBAgQIECAAAECBAgUFBAgC+IqmgABAgQIECBAgAABAjUJCJA1taa6ECBAgAABAgQIECBAoKCAAFkQV9EECBAgQIAAAQIECBCoSUCArKk11YUAAQIECBAgQIAAAQIFBQTIgriKJkCAAAECBAgQIECAQE0CAmRNrakuBAgQIECAAAECBAgQKCggQBbEVTQBAgQIECBAgAABAgRqEhAga2pNdSFAgAABAgQIECBAgEBBAQGyIK6iCRAgQIAAAQIECBAgUJOAAFlTa6oLAQIECBAgQIAAAQIECgoIkAVxFU2AAAECBAgQIECAAIGaBATImlpTXQgQIECAAAECBAgQIFBQQIAsiKtoAgQIECBAgAABAgQI1CQgQNbUmupCgAABAgQIECBAgACBggICZEFcRRMgQIAAAQIECBAgQKAmAQGyptZUFwIECBAgQIAAAQIECBQUECAL4iqaAAECBAgQIECAAAECNQkIkDW1proQIECAAAECBAgQIECgoIAAWRBX0QQIECBAgAABAgQIEKhJQICsqTXVhQABAgQIECBAgAABAgUFBMiCuIomQIAAAQIECBAgQIBATQICZE2tqS4ECBAgQIAAAQIECBAoKCBAFsRVNAECBAgQIECAAAECBGoSECBrak11IUCAAAECBAgQIECAQEEBAbIgrqIJECBAgAABAgQIECBQk4AAWVNrqgsBAgQIECBAgAABAgQKCgiQBXEVTYAAAQIECBAgQIAAgZoEBMiaWlNdCBAgQIAAAQIECBAgUFBAgCyIq2gCBAgQIECAAAECBAjUJCBA1tSa6kKAAAECBAgQIECAAIGCAgJkQVxFEyBAgAABAgQIECBAoCYBAbKm1lQXAgQIECBAgAABAgQIFBQQIAviKpoAAQIECBAgQIAAAQI1CQiQNbWmuhAgQIAAAQIECBAgQKCggABZEFfRBAgQIECAAAECBAgQqElAgKypNdWFAAECBAgQIECAAAECBQUEyIK4iiZAgAABAgQIECBAgEBNAgJkTa2pLgQIECBAgAABAgQIECgoIEAWxFU0AQIECBAgQIAAAQIEahIQIGtqTXUhQIAAAQIECBAgQIBAQQEBsiCuogkQIECAAAECBAgQIFCTgABZU2uqCwECBAgQIECAAAECBAoKCJAFcRVNgAABAgQIECBAgACBmgQEyJpaU10IECBAgAABAgQIECBQUECALIiraAIECBAgQIAAAQIECNQkIEDW1JrqQoAAAQIECBAgQIAAgYICAmRBXEUTIECAAAECBAgQIECgJgEBsqbWVBcCBAgQIECAAAECBAgUFBAgC+IqmgABAgQIECBAgAABAjUJCJA1taa6ECBAgAABAgQIECBAoKCAAFkQV9EECBAgQIAAAQIECBCoSUCArKk11YUAAQIECBAgQIAAAQIFBQTIgriKJkCAAAECBAgQIECAQE0CAmRNrakuBAgQIECAAAECBAgQKCggQBbEVTQBAgQIECBAgAABAgRqEhAga2pNdSFAgAABAgQIECBAgEBBAQGyIK6iCRAgQIAAAQIECBAgUJOAAFlTa6oLAQIECBAgQIAAAQIECgoIkAVxFU2AAAECBAgQIECAAIGaBATImlpTXQgQIECAAAECBAgQIFBQQIAsiKtoAgQIECBAgAABAgQI1CQgQNbUmupCgAABAgQIECBAgACBggICZEFcRRMgQIAAAQIECBAgQKAmAQGyptZUFwIECBAgQIAAAQIECBQUECAL4iqaAAECBAgQIECAAAECNQkIkDW1proQIECAAAECBAgQIECgoIAAWRBX0QQIECBAgAABAgQIEKhJQICsqTXVhQABAgQIECBAgAABAgUFBMiCuIomQIAAAQIECBAgQIBATQICZE2tqS4ECBAgQIAAAQIECBAoKCBAFsRVNAECBAgQIECAAAECBGoSECBrak11IUCAAAECBAgQIECAQEEBAbIgrqIJECBAgAABAgQIECBQk4AAWVNrqgsBAgQIECBAgAABAgQKCgiQBXEVTYAAAQIECBAgQIAAgZoEBMiaWlNdCBAgQIAAAQIECBAgUFBAgCyIq2gCBAgQIECAAAECBAjUJCBA1tSa6kKAAAECBAgQIECAAIGCAgJkQVxFEyBAgAABAgQIECBAoCYBAbKm1lQXAgQIECBAgAABAgQIFBQQIAviKpoAAQIECBAgQIAAAQI1CQiQNbWmuhAgQIAAAQIECBAgQKCggABZEFfRBAgQIECAAAECBAgQqElAgKypNdWFAAECBAgQIECAAAECBQUEyIK4iiZAgAABAgQIECBAgEBNAgJkTa2pLgQIECBAgAABAgQIECgoIEAWxFU0AQIECBAgQIAAAQIEahIQIGtqTXUhQIAAAQIECBAgQIBAQQEBsiCuogkQIECAAAECBAgQIFCTgABZU2uqCwECBAgQIECAAAECBAoKCJAFcRVNgAABAgQIECBAgACBmgQEyJpaU10IECBAgAABAgQIECBQUECALIiraAIECBAgQIAAAQIECNQkIEDW1JrqQoAAAQIECBAgQIAAgYICAmRBXEUTIECAAAECBAgQIECgJgEBsqbWVBcCBAgQIECAAAECBAgUFBAgC+IqmgABAgQIECBAgAABAjUJCJA1taa6ECBAgAABAgQIECBAoKCAAFkQV9EECBAgQIAAAQIECBCoSUCArKk11YUAAQIECBAgQIAAAQIFBQTIgriKJkCAAAECBAgQIECAQE0CAmRNrakuBAgQIECAAAECBAgQKCggQBbEVTQBAgQIECBAgAABAgRqEhAga2pNdSFAgAABAgQIECBAgEBBAQGyIK6iCRAgQIAAAQIECBAgUJOAAFlTa6oLAQIECBAgQIAAAQIECgoIkAVxFU2AAAECBAgQIECAAIGaBATImlpTXQgQIECAAAECBAgQIFBQQIAsiKtoAgQIECBAgAABAgQI1CQgQNbUmupCgAABAgQIECBAgACBggICZEFcRRMgQIAAAQIECBAgQKAmAQGyptZUFwIECBAgQIAAAQIECBQUECAL4iqaAAECBAgQIECAAAECNQkIkDW1proQIECAAAECBAgQIECgoIAAWRBX0QQIECBAgAABAgQIEKhJQICsqTXVhQABAgQIECBAgAABAgUFBMiCuIomQIAAAQIECBAgQIBATQICZE2tqS4ECBAgQIAAAQIECBAoKCBAFsRVNAECBAgQIECAAAECBGoSECBrak11IUCAAAECBAgQIECAQEEBAbIgrqIJECBAgAABAgQIECBQk4AAWVNrqgsBAgQIECBAgAABAgQKCgiQBXEVTYAAAQIECBAgQIAAgZoEBMiaWlNdCBAgQIAAAQIECBAgUFBAgCyIq2gCBAgQIECAAAECBAjUJCBA1tSa6kKAAAECBAgQIECAAIGCAgJkQVxFEyBAgAABAgQIECBAoCYBAbKm1lQXAgQIECBAgAABAgQIFBQQIAviKpoAAQIECBAgQIAAAQI1CQiQNbWmuhAgQIAAAQIECBAgQKCggABZEFfRBAgQIECAAAECBAgQqElAgKypNdWFAAECBAgQIECAAAECBQUEyIK4iiazeXaWAAAgAElEQVRAgAABAgQIECBAgEBNAgJkTa2pLgQIECBAgAABAgQIECgoIEAWxFU0AQIECBAgQIAAAQIEahIQIGtqTXUhQIAAAQIECBAgQIBAQQEBsiCuogkQIECAAAECBAgQIFCTgABZU2uqCwECBAgQIECAAAECBAoKCJAFcRVNgAABAgQIECBAgACBmgQEyJpaU10IECBAgAABAgQIECBQUECALIiraAIECBAgQIAAAQIECNQkIEDW1JrqQoAAAQIECBAgQIAAgYICqwJkwe0omgABAgQIECBAgAABAgTqENhhh6Zptm3btq2O6qjF6AXiyoj+PPpuAIAAAQIEFlTAeXpBG8ZuEZhBwBTWGZC8ZPkEnJiWr83sMQECBAiMR8B5ejxtrab1CQiQ9bWpGjVN48SkGxAgQIAAgcUVcJ5e3LaxZwSmCQiQ04T8fSkFnJiWstnsNAECBAiMRMB5eiQNrZpVCgiQVTarSjkx6QMECBAgQGBxBZynF7dt7BmBaQIC5DQhf19KASempWw2O02AAAECIxFwnh5JQ6tmlQICZJXNqlJOTPoAAQIECBBYXAHn6cVtG3tGYJqAADlNyN+XUsCJaSmbzU4TIECAwEgEnKdH0tCqWaWAAFlls6qUE5M+QIAAAQIEFlfAeXpx28aeEZgmMHOAvOuuu5pDDz202W+//ZpLL710VblvetObmptuuqm54oormp133rn92wMPPNAcddRRzXXXXbfy2uOPP37Ve1OZt9xyy6ry9t577+aqq65q9t9//4ll5W/40Ic+1LzwhS+cVld/H5HALCemV7ziFc1ll13Wq5L64L333tucf/75TfSxu+++u3npS1/a3HHHHb3vif4dr41+H6/r65OT+nwU2O33I2ouVSVAgACBkQn0nafj++Tb3va2Vd8BgyWdO88444z23Bqvu/POO7f7Ptr3umuvvbY9h++5557bCUc56e877bTTdt9b0xvy75kf/vCH2+/DfT/Pf/7z2+/CDz74YPua7vfbeE/3u/DIml11KxFYd4CMg6Eb2LoB8uabb26/QB988MGrDu74wv6FL3xh5UCOA/2YY45pzj333JWwGK5xcJ5++ukrHyApjE76Ul5JW6jGgAKzBMh8c9Hn4qJFfhEk9cUUIPOTz6Q+Oa2vTurzA1ZdUQQIECBAYOEFJgXI+P6XglgalNhMgPzgBz/YPOlJT2ouvvjilUGOdH6PkPeMZzyj/V6aAmT3u2b3O+mk7ws5+KRzfarHYYcd1px22mkL30Z2kMAkgXUFyAh7u+66a/NP//RPq67m5AEyNhQjMAcccEDvwREhMn5iFHOtL9N9ZU4LkH0joZp+nALLHCBTCJ10DI2zRdWaAAECBGoSmBQgY0bbPffc0+QhazMBMsqL765HHnnkqsGK9H00DWxMCpDd76qbCZDRfr6r1tSLx1uXdQfIuGIS4S8OxjSVNT8Ybr/99ubkk09uLrroolUHaiKO0clzzjmnufzyy9tf9Y1Axu/z1006qMfbbGo+TWCZA+S0uvk7AQIECBBYdoFJATKmpsYMtnwm2mYDZEx7ve+++1YGNqK8+K56yCGHNO9+97unjkBef/31K995Bchl73n2fwiBdQfImG4aPzEaeMEFF6zMRU/3QN5www0r94z1zTfPr+TsscceEwNk/rp99tln4rz0NPWgb1tDACljOQUWOUBOui+iO2VnOeXtNQECBAgQmC6wVoCMAYoYIYzQl99TuJF7IOP76etf//p2CmvckhLTYiMERiiMoJpuU1nrHsj8/LzWPZDxvTgGWkxhnd7+XrHcAhsKkLG4TX7j8TXXXLOyiE7JADltCutyN4W9H1JgkQPkpFH3IeuvLAIECBAgsMgC0wJkfr/gEUcc0S5Ks9EAGSH0vPPOa8uI77ARTiM8xk83QHa/a6Z1PdKgyawjkJMuFqeQuchtY98ITBPYcIBM92nFVNa99tprJUCawjqN3N/nISBAzkPZNggQIECAwMYEpgXIKDUtYBOhK4LeZgJkDHDEqOOZZ565cqtVLAw5LUDGfuTrd8waILsXi7sLSW5MzbsILIbAhgNk7H66KvPTP/3TzaMf/eh2mkH8bNUiOotBai8WQUCAXIRWsA8ECBAgQKBfYJYAmcLb3//93zff+c53Vm6dmhTi4ntpvg5HvkZHPFoj3ff4la98pb2nMcqZNUDGYElMT91ogEwDL1Gn7orv+giBZRPYVICMysbB2V1y2WM8lq0b1Le/AmR9bapGBAgQIFCPwKwBMn9+cnqM3KTHYeT3Tca9jt0VT9Pzn1M5swTIbijdaIDMB166j7mrp1XVZCwCmw6Qk66opN9fd911K5bdh6dOeqh6d2GcvrLyBkrlWhp5LN12ej23OkDm/T7tbZywom9Pui8iXhfTdI499tg1R/Gn194rCBAgQIDAYgvMGiCjFmnhmvw55LN8z+x+L8wDYyy+2BcgJ52/YyXXfF/6dPfee+/2mdJrLRKZ6uJeyMXun/ZubYGZAyRIAssksN4AuUx1s68ECBAgQGDZBZynl70F7f+YBQTIMbd+xXV3Yqq4cVWNAAECBJZewHl66ZtQBUYsIECOuPFrrroTU82tq24ECBAgsOwCztPL3oL2f8wCAuSYW7/iujsxVdy4qkaAAAECSy/gPL30TagCIxYQIEfc+DVX3Ymp5tZVNwIECBBYdgHn6WVvQfs/ZgEBcsytX3HdnZgqblxVI0CAAIGlF3CeXvomVIERCwiQI278mqvuxFRz66obAQIECCy7gPP0sreg/R+zgAA55tavuO5OTBU3rqoRIECAwNILOE8vfROqwIgFBMgRN37NVXdiWv7WfcUrXtFcdtllTf7g6OWv1dbXIB6sffrppzfHH398c+aZZzaHHnpoc8stt2zn/C//8i/NxRdf3Nxwww3Nrbfe2uy4447NPvvs07zkJS9pjjnmmOYnfuIntr4y9oAAgaUVcJ5e2qaz4wQaAVInqFLAiWn5m1WALNOGswTIG2+8sfn93//95qtf/Wrz9Kc/vfnFX/zF5vvf/35z0003tb+L0Pn2t7+92WWXXcrspFIJEKhewHm6+iZWwYoFBMiKG3fMVXNiWr7W/+///u/mIx/5SHPVVVc1t912W3PXXXetVCJGvvbff//mZS97WXPggQemK1/LV8kF2OM8QL7mNa9pDjvssObmm29eGYH89re/3TpHiIy/v/rVr25+5Ed+pN3z+++/vzn22GPb1772ta9t//fDk8gC1MwuECCwTALO08vUWvaVwGoBAVKPqFLAiWm5mjWmSJ588snNpz/96WbPPfdsR7zuueee5nOf+1zzghe8oPnud7/bfPGLX2x+8IMfNL/zO7/TXHDBBUa/NtjEH/zgB1vDCIbnnHNOc/TRRzdf/vKX2+AeIT3C4VFHHdX85m/+ZnP55ZdvN1X1E5/4RHPkkUc2P/dzP9e8//3vb3bdddcN7om3ESAwZgHn6TG3vrovu4AAuewtaP97BZyYlqdjfP3rX18JMSeccEJz1llnNTvttFPTncIa9+RF4Ln66qubF7/4xc3b3va25lGPelRz2mmnNRdeeGFz6aWXtvf1dX/iPr6TTjqpectb3tKceOKJbbnXX3/9SmDKX59G5yKgRrnxk36X34v5+c9/vv17BN74/TOe8Yx2Wmf8xH9HCM5/+rYZo34vfelLm4MPPrjd9/wn7juM+wx/9Ed/dNV+fuc732nrGtuIqaTdn9iPvu3nr/vsZz/bBsCweNWrXtXa/N3f/d3K+2IUOKye+9zntvdKdn/Sfsf01e62IoiGV/hEu65132SfyV/8xV+0o57/8R//sareDz/8cBtmr7nmmuYf/uEfmgceeKA1/pVf+ZW2HZ761Keu2s3Yj9e97nXNJz/5yfaiQ7j84R/+YXPIIYdMHTGN/Y++9a53vasdCY+puvH/T3rSk9o2PvXUU5uf/MmfXLW9bdu2tfeKhtuXvvSldvR85513bqf/xlTgww8/fGUUN70x+vOb3/zm5qMf/WhrFfV5znOe096X+jM/8zNNjMj/wR/8QXPJJZc0cVz8+Z//efNjP/Zj7dtje2eccUZ7ISUuvMT/p7+lNvjMZz7T7sfP/uzPNr/xG7/RtnWUm//E39M9sH2fGN3+1HcspPd9+MMfbsuKYzD1577jadInU/d4j/2Pixvx8+53v7tt6/QTxtGH//d//7d5xzve0c5K8LN8As7Ty9dm9phAEhAg9YUqBZyYlqNZ4766+EIeIa/7JbnvHsh8emV8SY0FXeILeHyZjCD2zne+sw2V6SeCRwSxr33ta234eOITn7jpABllHnfcce3o6LOf/ey2/N12222wAJnKf+9739vsvffeK0EqQlOEkWuvvbZ58pOf3PzyL/9y84hHPKKt6n/91381f/3Xf9087nGPmxogv/GNb7SBJoLab//2b7chJoLwFVdc0YaeaT/vec972vD5vOc9b5X3Bz7wgeaUU05p3x4uETBjyuunPvWpNsjE3/70T/90ZZ+7AfKb3/xm254Rkg866KDWOEY582mzBxxwQPO0pz2t3cZXvvKVNqztscce7b7/0i/9Uvv7dP/mvffe2/zWb/1W8//+3/9rPv7xj7d/i36Wgv6kekboicWbYlt/9Vd/1fzCL/xC84QnPKENxbHY0K//+q+3oTKCWfxEmItQ/8d//MfNYx/72ObXfu3X2uB89913t/eMPvTQQ+3fIgymn7SP8Zqoz7777tv20QjnUZ8Uiv75n/+5nU6cFjTKL1JEG8Q+RLiK/4/9iH/HBZj//M//bPfz8Y9/fPOP//iP25Wb9iMFyEc+8pErrmv1p3kGyKhPBOMIyjHNOkyif6bjII77mEIdnx+mUU87ahfz787Ti9ku9orALAIC5CxKXrN0Ak5My9FkMU01vhz+27/9W3PllVc2z3rWs1Z2fNIiOulLbNyLF1/0//3f/70NHv/6r//aROiKUZ/0k0bL4sv0W9/61ja8bHYEMgJRBNYY+Yov8fGTvojHvzc7Avm+973v/7d33rFSFe0fHwMWFBJQYgEE7AFRrIiFYjSWxIIICtgF1IiKBWtEI0XAoIIxioqa6B9Y0KASFFSKBRtEoohgKBZMQFAJalTQ+Mtn8j77m3vu2XL37L17dvc7CfF9754y83lmd873PGXcyJEj3ebNm+sISBPKCEe8cWEBm3z3L8VswCuISBw/frwvqIOXDs8WDTsOGTLEIfCjHiETQYgaE/GcE7UDnmWYIs4Qp9bMgxz1tIUCA880Io1+jRgxwt+H8xBfNLyqzJc+ffp4kdWqVausSGx+EZrLWPGC8XuCsEfMcF08sxMnTvR/J7Qaj3jbtm0zYs4ubl40BB7j4xgEMZ5nzguvHwpRwraZ27wMsfnASwOuwRgZF4IzFMR4kQk9pnEuY6WFwrJLly7+Gu3atfOf8TJhwIABPqTZPO655nNTCkj6ASte0ODdRUwyZ/DEIhyZeyYqSzG/dY2mJ6B1uumZ644iUCoCEpClIqnrpIqAFqZUmSNrZ0zgtW7d2s2cOdN17tw5c2w2AWmhcv369ct4zcaOHevDWy1M1S7CA++YMWP8cea9SSIgzzrrLO/xoN882OOZyvXAbf0oNITVvHCE8CK41qxZk/FA4inEizVhwgQvZMLWmALSbERfaHi18LghPKzNmzfPh4jitUPUhB4hPEYIG8JALc+S80ImFEniGMQRx5g4xnsHb7x/hHKSoxm2aNgknjoEZPPmzb3IRrDRbAx4CPHgtm/fPuucNJE0bNiwzEsHOxjRhlCmqBC5pJ06dfIiZsqUKb7/oQjLNi/sRYAJIAs95XheGiCYCM3khUc0lBXvIkymTp1aR8RyLveePHmyF1rRfpiwxkOPB5kXICEXvL1pFJD00UQ43wnydvmuY19eOJk3ujJ+7dTLKAGt05oTIlC5BCQgK9d26nkOAlqYKmN6UDwH7w0N72H37t0zHc8mIK0IDILQvEnmFezZs2em8IsJF7wYiD0TDcUKSAQuIXTkeHFv80BlEwqhBQoVkIgXBNgjjzziRW8ousgPhBUP/1GR1pgCEg8iIum3337zQg7PGd45xAxiLRo+CHdCM+k7+Xh2DmIuTkAyTsQpopiXALCKa+Qybty40S1fvtzRJ0KI+Uf+YJh3Fz1369atPq8QQRYnCqPHm4DE20qob9gQYogtcmijHnOOwxuOJ5w+wgnhumLFCofnzzzTdn08aeQlFtLMi0ve6/bt233OH0IQQUzDNnhKCemlX3ipo82+N3jNedFCs3xYXkqEY802n5raA0kfQ08zc4hw7dC7XAg/HZNOAlqn02kX9UoECiEgAVkIJR1TcQS0MFWGySycjxw8y2m0nscJSB4mrWiOhS1yvIlFHrAtjNVEJZ4hwhuj181FKK6Ijh3PAzgP3OS5Wcsn4AoRkFYYhPxBxBn5jqGAXLt2rRePiC1C+AYPHpzJWcx3/1LNBvhTeRWvII1CM1RrpSGaEIFwx0tGgxHhmwgcWlRAEmppDabY1rYMsb9TTAbxxz8YWKPoDLmnCNQ4ARktEENRIF445KsaazmQ2YRY3LxEUI4bN87nklrjZQM5t4Rn01cTkMXub0roKWG85CviXWU81jZs2ODnA5yjnnw7xqrnkitM+DHh3HhwEcSM1cKROT6fgMw1n+KK6ESP50URea58l6ywTy4ueGYRyLNnz/YvUXih0aJFi1JNa12nTAS0TpcJvG4rAiUgIAFZAoi6RPoIaGFKn02y9QjhSE4ZlTStIAjHxj1QWvERPg8Lp/D/o9VWCXUjZI+HY8sHs+vykM0Dc7SaJgKUcMw4AYnYWbVqlb8vHq2weEc+AZdPQBKSyPXwCCGAyVGLC/ucO3euD+NDrMW1QqqwJp0ZoYg3b5aJXzj079/fVzul+AzjwGOWLYQV1oh7xkWhG0JBycezFlYbZWxcG+8bxXXwvpHbGK38aefiDeR6iA+4Et6KWLr//vszhXziWFgV1lDshsdF5+WcOXPc0KFDfcVcchcRRggkhCo5odHqvMUISEQ03xE807RoPmhDBCSFhZjL/EbiRUeYRr3/+QQkecuI97BRtIjw4DgByXygii0NT3JYAMlyZnNxse8930+uo8qrSb/F6Thf63Q67KBeiEAxBCQgi6Gmc1JPQAtT6k2U6WD4cIyIJM+P6qB4s3jQRewhHhCCFFhBkIwePdpXbQ2bhcMeeuihPheMB1m8LNHqosWGsOJBYpsFRAhFPcICJkkFJPmEFHkhJJTxZ8sbZLxUKSX0kRBGq0oKk0KrsOaaGYQHImbx9JDTSM5nNpGFoDGxgEeUXFM8pwj3huZAkktIISRESPhiAME+aNAgLzoojEOuZNjito6I6y/XxYOFiEQwMZ+ytVxhmhQSIgwWTyPzETHLfKDPeGPJXwxb3LxAtN15552+GEyhIaxW4bZbt27+8rxACMV2ISGs9JfiOyb6LRwXNlbgx/qeT0CGW9rYOQ3ZxiMsGIR98S5TOIrve/TaVoUXzzbzkbnJCyF+C8JCUpXzi6eeGgGt05oLIlC5BCQgK9d26nkOAlqYKmt6ZAtTjI4CwUToatx+fvZAzFYLePOocMnWEVYp1a6VREDiAbOCLHjBLA8tiYCkMAwhn4g3u142ARmK7dALle/+DZkN5sm1vTZ32223OqeHBVksjDiX98iqlCJysxXRgQE5eghoKrDilaa4jLGmAmn0RUDoCTUh+8Ybb/j9HwnnxFMbtkI9fyYgmUP871AMWxEdqrgSyksYZZx31e5LfxCVhGlaCKv9La6IDmwZC1tvIDDhYvukEgpL6CqNa1LMKPTYF1pEx/ZLtbFQoZhx5hO+fF7KHMiobe2FUSggQ6GJ1xPRzHcaT6e28GjItzqdx2qdTqdd1CsRKISABGQhlHRMxRHQwlRxJvMdRiBRdZH986hWSZEUHhzxOODtwQMTzZELR4onBaHAnoCEMIbbRpRKQNrelQga21ogn4DLFcKKhwWxhOfPCplkE5C2hQEetHA7hnz3b8hssEqwCHFECULKRGS4JQSVc81baB7I6F6emzZt8oII71S4pyX9iTKxMWNzy600DyQetnAz+TAXk/BNE5AmVhF45PlZlU4TYXjbsoWmGiMTSYRKwttyA8NtPCzE2V5awAHPIl5ZE5yIQLzKhF+GocW2lykFhqhmi9i1c2bNmuU9ccxz+gl3C121rUPoJ2KLPoQvEQrZxoOqwbykoNoxLwoIH0aUhtumcP20eCAtdDWsumrh0lSqVShrQ77Z6TtW63T6bKIeiUChBCQgCyWl4yqKgBamijJXbGcL9RiFJ5tXZenSpVkrbib1QHI/e4ilUAqhgeS/ketGlVCKm1DoJGwUekHEIEYIVyVEN9weg/BK87pxXpyANIGwZcuWOsVrcj3wFzsL6C/ewCVLlji8f1bV0yqqUhSGMGETvNY3ctQsrJYxkNeIaMFbhuANvUtxdrB8QqrpIsrw8BFKi+eJnEIKDMEc/l999ZUXXwsXLvR5cRzPVg/kpyKOKODD8YQxcwwFeKK5g3F8TEASCk01WTx03Js8SooakaPJliIWPsmY8HLjRcZjSMVVvIULFixwffv29VtywCUUriaMuH70HHILTRhZ6Grc/o22F6SFsobini1g6DfcEbLMtQ4dOnhB3KNHD287QkGpUBs3X/GGExJNO/fcc93111/v806L9UCGOZCIboQ+1WnpU7YcSAtdJT/WXtSYvexFCiHlCmUt9lte/vO0TpffBuqBCBRLQAKyWHJZzrM34DwwRPekC0+xh+Nct2+KghglHn5qLqeFKTWmKLojxQhIHqJ5mEfUhXs/Rr97VM2M80TZA3JcEZ1oaJ15gTiWPC4EJF67fM2ubQKS46N9iQpIqnnizaIPePv4F4ZWltIDaf0n1xIPGUKD/FJaXPVMOx6PGuGjiDX6f9RRR3mBR4EZwjYRPGHl3DgBiZePnEJEA3lxCFT+hrjGK8nvKmIOccT5cKEyLcLdvM3kSxIOyzkITYQdfSHUlNDPaEhu1F42BygsgzfW7pvtGsw5igFNmjQpY388n7wUoP/Ym/zQcP9F7kk+Jnt74nXEfohyBC+eRgSxeU35b5hva/1laxq8lRwbhrJiB8aAJ5/rUgWXFxfkWxJKG61Om2++hp7jYgVk9B6MtVevXt7DTd4zLfy+U4yIuYeH1EJ9eXFgDXGJLclFVihrPgum93Ot0+m1jXomAvkISEDmI9TAz1lgeWDgzTlv7sNNscNL8fDJ4hfXKNTA21mq+fGQYHt9NbArNX24FqbaNL/l5+GJDPd+TAMNE4zRTdvT0Df14f8J5BJJ1cDJBOTRRx/tRXaulq8ibTXw0BjKR0DrdPnY684ikJSABGRSgsH5tqcdxSJ4w8pb9LjNpnPd0sJ2CM9SfkfxxtHCVDy7Sj6T7xyeOiplUqk1TU0CMk3WyN4XCci6Yppc0nx5o5VhWfUybQS0TqfNIuqPCBROQAKycFZ5j7TqeoRK9e7d24fYELYVreSX7UK25xn5NYTuUM5frTgCWpiK41aJZ/34448+7JFwQ/LcCLO0QiFpGo8EZJqsIQEpD2RlzMdq7qXW6Wq2rsZW7QQkIEtkYSspz4MrVe3IXyT/h+qBhNJRSCJfI6QV0UkFSbyPYc5HvnP1eV0CWphqZ0bwHaP6J0VaeHHDCxsKhaiJQDEEqt0DWQwTnSMCjUFA63RjUNU1RaBpCEhAlohzdH8wCj2woTZFI3IV07HbW9EMivAgQMl/VCuegBam4tnpTBEQAREQARFobAJapxubsK4vAo1HQAKyRGynTZvmq8hRbc9yrxYtWuQrBNqeXlb2Pe6WcZtol6hrNXkZLUw1aXYNWgREQAREoEIIaJ2uEEOpmyIQQ0ACsgTTgjLzhJ6yATZFc9j0nGZ/nz9/fuxmzXbr8Hx5H0tgEOf8FgeEFauJgAiIgAiIgAikj4DW6fTZRD0SgUIJSEAWSirHceZpZJ8w9p4LcxfZv4tNmKkKyb5mbGodbXY+m2cjIPPtU1aCLlf9JbQwVb2JNUAREAEREIEKJqB1uoKNp67XPAEJyBJMATYyJnQ1V2OzZzamRmRGW0NyJUvQ3Zq4hBammjCzBikCIiACIlChBLROV6jh1G0R+F+kn/+Pc0T8KeSvobOCLQSGDBnivv32W3fGGWe4XXbZpd4lPv/8c/f+++/XyY+0g6x4zsqVK7MKzIb2SccrhFVzQAREQAREQATSTEACMs3WUd9EIDcBeSATzhC2DqB4zqBBg7KGqNr+kF27dvVberRv3z5z11WrVvlzO3bs6Peua926dcIe6XQIaGHSPBABERABERCB9BLQOp1e26hnIpCPgARkPkI5Pt+2bZsbMWKEe+GFF9zjjz/uLr744tijf/nlF3fJJZe49957r95xr7/+urvooovc5Zdf7rf7UCsNAS1MpeGoq4iACDQNAdt/8pprrnF33XWXO//8891nn33mXnnlFde/f/+m6YTuIgJNSEDrdBPC1q1EoMQEJCATAGXPRsTfnnvuWc+zGL2sPRwMHjzYTZ8+3e26667+kIcfftjdfPPN7oEHHnC33nprgt7o1JCAFibNBxEQgUoiIAFZSdZSX0tBQOt0KSjqGiJQHgISkAm424I/atQox//O1UxsckxYTMeuobfMCQwRc6oWptLy1NVEQAQal0AoIO+++243cOBA99FHH8kD2bjYdfUyEtA6XUb4urUIJCQgAZkQoE5PJwEtTOm0i3olAiIQT+Cll15yF154oeOF5D333OOuuOIKt2zZMvf888+7448/XthEoOoIaJ2uOpNqQDVEQAKyhoxdS0PVwlRL1q7usVKka9q0aX6Q2ULdzXsVd8yvv/7qHnzwQffmm2+6b775xv3+++/uwAMPdGeeeaa76aab3H777ec9XeRpr1mzJivMAw44oKkbbcgAAA21SURBVI6Y+eGHH9xjjz3mZs2a5agive+++7rTTz/d5+9xzbAxhqVLl/p9cmfMmOFD/teuXeu3NSL/+8orr6yz/222yAwqhd93333+X79+/ersu8tn7777rs8lp/I1/WNPXu4xfPhwd8EFF7hmzZplulXImKP34OR169b51AN4rl692o+7V69ePgXhiCOOqDdus134Qffu3d2AAQM8f9v398MPP3SXXnqpu+666/zf2T/4k08+8R5I7qEmAtVGQOt0tVlU46klAhKQtWTtGhqrFqYaMnaVDxXxRbXnHXfc0fXp06eOaGLothUQQi4qIBE45snCi9WlSxdH8a9PP/3UEVbfu3dvX/15+/bt7qmnnnJ///23vwaCcN68ee60005z7GFL23nnnb0QO+igg/z5FBBbsmSJO+GEE9yRRx7p2NJowYIFbp999vHXOumkkzKWYQwIJO4/d+5cd/LJJ7u9997bH08lajxviNHdd9/dn5NNQCIMEVnLly+vIyARj4hkhCU56X379nUtW7Z069evd4sXL/aimc/IN7dmArJFixaeQ/PmzTOf/fXXX+6tt97y4hPRixClIRq5Btc1nt9//70fB9eZMmWKH4s1xj1z5kwv1tu0aeP/TFG1RYsWeYF72223uYkTJ/qq0WwFhcglfPWcc87xIpXCa+H9q3yqa3g1RkDrdI0ZXMOtKgISkFVlTg3GCGhh0lyoFgKIkLffftt169bNe7zIocaDFRVCzHk+Ny8logqv2BNPPOHuvfded8stt3ihQkMoIoQQbQhIRFnYTMDFeTxNsL7zzjteAPEPcUl78cUX3Y033uiFIqK3Xbt2/u/mRUWMPvTQQ15Q0TZt2uSoOopY5V4cR4sTkGGfOSb0DlqOedu2bd2zzz7rPazW2IMXEc3f6BPH0ExAHnbYYfVEGuKOKqhsuWQCDoF32WWXeS8uYpWCaMbThCUi9LnnnvOC2saN7aJhqF9//bUvwIaNqOJ9yCGHVMt01ThEoGACWqcLRqUDRSB1BCQgU2cSdagUBLQwlYKirpEGAiYg8fghXPBQIbqsjR071r366qvuxBNP9HvRmujbsGGDPw6PFwKmU6dOdYaTSyTm+sz2te3Ro4e/rnkNuXgoWsOtjUxAjhkzxo0ePbpOP/DGIWBDb1+cgJwzZ4676qqr3Nlnn+0FdSj88Hji/SMcNlrN2sQgNw3DQRsqIAlFZRyEmGKHnXbaqc44sAO5i/zD25lLQJoI//LLL5XjmIYvmfpQFgJap8uCXTcVgZIQkIAsCUZdJG0EtDClzSLqT7EETEAS0oj3rnPnzt6riICxPWYJ2zz44IN9/mGc1xDvHYKS0E+8Xx9//LEPQ0VcxR2fS0DizUQITpgwwd1xxx31hmXFYBBatrctY8DLiHcOoRu2zZs3+z10N27cmPHGRQWkCS5CS7nuyJEj6wjI8Ho///yz++677/xY8UwiFFesWOG9okkEJDmJjz76qPeyEmoabZbDiPcRL2irVq284IzzQLK/I3mfbOcEr6i4L3au6DwRqCQCWqcryVrqqwjUJSABqRlRlQS0MFWlWWtyUKEIwdNI6KiFPZr3Du8XAoxw0lAQbt261Y0fP94LNwSkNcI5ETjkFDZUQJo3kRDSjh071rMJRXsI6SQH0sI/OQfRRD4gAjhscd64qIDEm8k4pk6d6sNiKfgTDT1FqI0bN87nDVojd5HwUPIUKURTrIAk/3TYsGG+qE2cCOZ+5HIOGjTI7bXXXplQ2bgcSPIxFy5c6BC6eCoRw2oiUIsEtE7XotU15mohIAFZLZbUOOoQ0MKkCVEtBEIBibeOME4EFl47hONrr73mq5ry31BA/vHHH+7qq6/2OZMUrSGnj8IveLv22GOPTJ5hsQIyH98wR9GqsMZVFM0nIKlsSogrHlaEJF7FqIAkvHXo0KG+0NB5553nTjnlFJ8nSqGen376yY+d1hQCElFNXmnr1q0zuZ9xrOjbDTfc4HNRLYc0H1N9LgLVREDrdDVZU2OpNQISkLVm8RoZrxamGjF0DQwzFJB43wifPOaYY3xhHIQVnjVyH/HOhQJy/vz5/vOuXbv6PDs8Y2ErNgfSQlizhXLGmSRbKCfH4hmlIM2WLVvqhbDisSRPkHvhzTzuuOPqFb+h+ilCmc+ffvppHxoatlLlQOYLYTXePXv2zBvCSiEebMW2I2GuaA1MZw1RBDIEtE5rMohA5RKQgKxc26nnOQhoYdL0qBYCofhCnJADSH4ff7/99tt9aCfeyKggJNwVzxuFdBApYcM7idAi/66hHki8eBSrQbRxT6tEmou3hb2SE0n/w2ZhuORGTp8+3ecF2lgQq1ROZXz8b+4VLX7DtehPtoI0VvSHvSmL9UASCltoEZ1Ro0b5/tNyCWfLFY2zT7XMXY1DBHIR0Dqt+SEClUtAArJybaeeS0BqDtQAgagIQVBRaZSQTorKWBGWqIA0j5iFVLJ/I+3ff/91kydP9vmC5OM1VEASEsp2FsuWLau3nQXClMI6eA6pGkvFWBNSCDBCaBGztg2JbeNB3iJeVCtOY2Nhyw1yGMk73H///f21ogIy9ECypyKePRO1FAwi5PeDDz5wxx57bCIBWcg2HvTPPKW5BCTVasl/5F9YtbUGprOGKAIZAhKQmgwiULkEJCAr13bquQSk5kANEIgKSCvWgoC79tprfWVQfsijApLcwuHDh7uXX37Zi6++ffv6yq1UCyVclO0wyJvkv1EPZa7wVpAvXrzYeyARVVQdPfzww92ff/7p/75y5Uqfc/nkk09m9mO0YjLkBSJaTz31VN8XiskgSClQg/izXEC7f8uWLf34EKzW4rbfwLOIZ5NrI1KpuErhnAULFvhx//PPP75fhPIiStn2Y8mSJf7zsFqs3SNuH0g+s/0e169fX+8+CFm8wew5aQI2rogOAv6LL77wBYw6dOhQR3DWwHTWEEVAAlJzQASqgIAEZBUYUUOoT0BvNjUrqoVAVEBu27bNi7fZs2e7Z555xgtAWpzooyIqwmzGjBl+yw7yJTmesEkEXLRqqDHLJyA5bt26dY6tRRBVq1evdog98i0HDhzoC9q0adMmYwIbA15GPKP0h74hPvkMz2OzZs0yx9v9w0I8uQQkHj22CZk0aZKv9krj2og5ro2Xla1HKG6DJ5YiPFStpdgO+0dGK8NmE5Bx44Zpr169vFeYgj9hs9Dd6FykgA4iG29p9JxqmbcahwjkI6B1Oh8hfS4C6SUgAZle26hnCQhoYUoAT6eKQIkJ5MoFLPGtdDkREIEKIaB1ukIMpW6KQAwBCUhNi6okoIWpKs2qQVUoAQnICjWcui0CjUhA63QjwtWlRaCRCUhANjJgXb48BLQwlYe77ioCcQQkIDUvREAEogS0TmtOiEDlEpCArFzbqec5CGhh0vQQgfQQkIBMjy3UExFICwGt02mxhPohAg0nIAHZcGY6owIIaGGqACOpiyIgAiIgAjVLQOt0zZpeA68CAhKQVWBEDaE+AS1MmhUiIAIiIAIikF4CWqfTaxv1TATyEZCAzEdIn1ckAS1MFWk2dVoEREAERKBGCGidrhFDa5hVSUACsirNqkFpYdIcEAEREAEREIH0EtA6nV7bqGcikI+ABGQ+Qvq8IgloYapIs6nTIiACIiACNUJA63SNGFrDrEoCEpBVaVYNSguT5oAIiIAIiIAIpJeA1un02qYWevY/AVQLQ23MMe6wg3Puv//++68xb6Jri0CTEdDC1GSodSMREAEREAERaDABrdMNRqYTSkhA8y8ZTHkgk/HT2SkloB+GlBpG3RIBERABERAB55zWaU2DchLQ/EtGXwIyGT+dnVIC+mFIqWHULREQAREQARGQgNQcKDMBPScmM4AEZDJ+OjulBPTDkFLDqFsiIAIiIAIiIAGpOVBmAnpOTGYACchk/HR2SgnohyGlhlG3REAEREAEREACUnOgzAT0nJjMABKQyfjp7JQS0A9DSg2jbomACIiACIiABKTmQJkJ6DkxmQEkIJPx09kpJaAfhpQaRt0SAREQAREQAQlIzYEyE9BzYjIDSEAm46ezU0pAPwwpNYy6JQIiIAIiIAISkJoDZSag58RkBpCATMZPZ6eUgH4YUmoYdUsEREAEREAEJCA1B8pMQM+JyQwgAZmMn85OKQH9MKTUMOqWCIiACIiACEhAag6UmYCeE5MZQAIyGT+dnVIC+mFIqWHULREQAREQARGQgNQcKDMBPScmM4AEZDJ+OjulBPTDkFLDqFsiIAIiIAIiIAGpOVBmAnpOTGYACchk/HR2SgnohyGlhlG3REAEREAEREACUnOgzAT0nJjMABKQyfjp7JQS0A9DSg2jbomACIiACIiABKTmQJkJ6DkxmQEkIJPx09kpJaAfhpQaRt0SAREQAREQAQlIzYEyE9BzYjIDSEAm46ezU0pAPwwpNYy6JQIiIAIiIAISkJoDZSag58RkBpCATMZPZ6eUgH4YUmoYdUsEREAEREAEJCA1B8pMQM+JyQwgAZmMn85OKQH9MKTUMOqWCIiACIiACEhAag6UmYCeE5MZQAIyGT+dnVIC+mFIqWHULREQAREQARGQgNQcKDMBPScmM0AdAZnsUjpbBERABERABERABERABERABESgBgjssEMNDFJDFAEREAEREAEREAEREAEREAERKAGB/wM8bZFrF+rWdgAAAABJRU5ErkJggg==;" parent="1" vertex="1">
          <mxGeometry x="770" y="590" width="876.89" height="715" as="geometry" />
        </mxCell>
        <mxCell id="aq_8wqEdBt7ugzdirpVi-2" style="edgeStyle=orthogonalEdgeStyle;rounded=0;orthogonalLoop=1;jettySize=auto;html=1;exitX=0.25;exitY=1;exitDx=0;exitDy=0;entryX=0.25;entryY=1;entryDx=0;entryDy=0;" parent="1" target="aq_8wqEdBt7ugzdirpVi-1" edge="1">
          <mxGeometry relative="1" as="geometry">
            <mxPoint x="1003.7733333333335" y="1082.5" as="sourcePoint" />
          </mxGeometry>
        </mxCell>
        <mxCell id="aq_8wqEdBt7ugzdirpVi-6" style="edgeStyle=orthogonalEdgeStyle;rounded=0;orthogonalLoop=1;jettySize=auto;html=1;exitX=1;exitY=0.75;exitDx=0;exitDy=0;entryX=0.75;entryY=0;entryDx=0;entryDy=0;" parent="1" source="aq_8wqEdBt7ugzdirpVi-1" target="aq_8wqEdBt7ugzdirpVi-4" edge="1">
          <mxGeometry relative="1" as="geometry" />
        </mxCell>
        <mxCell id="aq_8wqEdBt7ugzdirpVi-17" style="edgeStyle=orthogonalEdgeStyle;rounded=0;orthogonalLoop=1;jettySize=auto;html=1;exitX=0;exitY=0.25;exitDx=0;exitDy=0;entryX=0;entryY=0.25;entryDx=0;entryDy=0;" parent="1" target="aq_8wqEdBt7ugzdirpVi-1" edge="1">
          <mxGeometry relative="1" as="geometry">
            <mxPoint x="778.44" y="805.0555555555555" as="sourcePoint" />
          </mxGeometry>
        </mxCell>
        <mxCell id="aq_8wqEdBt7ugzdirpVi-18" style="edgeStyle=orthogonalEdgeStyle;rounded=0;orthogonalLoop=1;jettySize=auto;html=1;exitX=0;exitY=0.5;exitDx=0;exitDy=0;entryX=0;entryY=0.5;entryDx=0;entryDy=0;" parent="1" target="aq_8wqEdBt7ugzdirpVi-1" edge="1">
          <mxGeometry relative="1" as="geometry">
            <mxPoint x="778.44" y="827.5555555555555" as="sourcePoint" />
          </mxGeometry>
        </mxCell>
        <mxCell id="aq_8wqEdBt7ugzdirpVi-19" style="edgeStyle=orthogonalEdgeStyle;rounded=0;orthogonalLoop=1;jettySize=auto;html=1;exitX=0.5;exitY=1;exitDx=0;exitDy=0;entryX=0.5;entryY=1;entryDx=0;entryDy=0;" parent="1" target="aq_8wqEdBt7ugzdirpVi-1" edge="1">
          <mxGeometry relative="1" as="geometry">
            <mxPoint x="1048.44" y="1102.5" as="sourcePoint" />
          </mxGeometry>
        </mxCell>
        <mxCell id="aq_8wqEdBt7ugzdirpVi-27" style="edgeStyle=orthogonalEdgeStyle;rounded=0;orthogonalLoop=1;jettySize=auto;html=1;exitX=1;exitY=0.25;exitDx=0;exitDy=0;" parent="1" source="aq_8wqEdBt7ugzdirpVi-1" edge="1">
          <mxGeometry relative="1" as="geometry">
            <mxPoint x="1368.44" y="804.9022988505747" as="targetPoint" />
          </mxGeometry>
        </mxCell>
        <mxCell id="aq_8wqEdBt7ugzdirpVi-1" value="&lt;font style=&quot;font-size: 14px;&quot;&gt;&lt;br&gt;&lt;br&gt;Формирование заказа&lt;/font&gt;" style="html=1;align=center;verticalAlign=top;rounded=1;absoluteArcSize=1;arcSize=10;dashed=0;whiteSpace=wrap;" parent="1" vertex="1">
          <mxGeometry x="958.44" y="782.5" width="180" height="90" as="geometry" />
        </mxCell>
        <mxCell id="aq_8wqEdBt7ugzdirpVi-3" value="&lt;font style=&quot;font-size: 10px;&quot;&gt;Администратор&lt;br&gt;&lt;/font&gt;" style="text;html=1;strokeColor=none;fillColor=none;align=center;verticalAlign=middle;whiteSpace=wrap;rounded=0;rotation=-90;" parent="1" vertex="1">
          <mxGeometry x="968.44" y="972.5" width="60" height="20" as="geometry" />
        </mxCell>
        <mxCell id="aq_8wqEdBt7ugzdirpVi-8" style="edgeStyle=orthogonalEdgeStyle;rounded=0;orthogonalLoop=1;jettySize=auto;html=1;exitX=1;exitY=0.25;exitDx=0;exitDy=0;entryX=0.75;entryY=0;entryDx=0;entryDy=0;" parent="1" source="aq_8wqEdBt7ugzdirpVi-4" target="aq_8wqEdBt7ugzdirpVi-5" edge="1">
          <mxGeometry relative="1" as="geometry" />
        </mxCell>
        <mxCell id="aq_8wqEdBt7ugzdirpVi-4" value="&lt;font style=&quot;font-size: 14px;&quot;&gt;&lt;br&gt;Поставка расходных материалов&lt;/font&gt;" style="html=1;align=center;verticalAlign=top;rounded=1;absoluteArcSize=1;arcSize=10;dashed=0;whiteSpace=wrap;" parent="1" vertex="1">
          <mxGeometry x="1128.44" y="892.5" width="180" height="90" as="geometry" />
        </mxCell>
        <mxCell id="aq_8wqEdBt7ugzdirpVi-9" style="edgeStyle=orthogonalEdgeStyle;rounded=0;orthogonalLoop=1;jettySize=auto;html=1;exitX=1;exitY=0.5;exitDx=0;exitDy=0;" parent="1" source="aq_8wqEdBt7ugzdirpVi-5" edge="1">
          <mxGeometry relative="1" as="geometry">
            <mxPoint x="1638.44" y="1027.6379310344828" as="targetPoint" />
          </mxGeometry>
        </mxCell>
        <mxCell id="aq_8wqEdBt7ugzdirpVi-21" style="edgeStyle=orthogonalEdgeStyle;rounded=0;orthogonalLoop=1;jettySize=auto;html=1;exitX=0.5;exitY=1;exitDx=0;exitDy=0;entryX=0.5;entryY=1;entryDx=0;entryDy=0;" parent="1" target="aq_8wqEdBt7ugzdirpVi-5" edge="1">
          <mxGeometry relative="1" as="geometry">
            <mxPoint x="1448.44" y="1102.5" as="sourcePoint" />
          </mxGeometry>
        </mxCell>
        <mxCell id="aq_8wqEdBt7ugzdirpVi-5" value="&lt;font style=&quot;font-size: 14px;&quot;&gt;&lt;br&gt;&lt;br&gt;Получение заказа&lt;/font&gt;" style="html=1;align=center;verticalAlign=top;rounded=1;absoluteArcSize=1;arcSize=10;dashed=0;whiteSpace=wrap;" parent="1" vertex="1">
          <mxGeometry x="1358.44" y="982.5" width="180" height="90" as="geometry" />
        </mxCell>
        <mxCell id="aq_8wqEdBt7ugzdirpVi-7" value="&lt;font style=&quot;font-size: 10px;&quot;&gt;Заказ расходных&lt;br&gt;материалов&lt;br&gt;&lt;/font&gt;" style="text;html=1;strokeColor=none;fillColor=none;align=center;verticalAlign=middle;whiteSpace=wrap;rounded=0;rotation=0;" parent="1" vertex="1">
          <mxGeometry x="1148.44" y="832.5" width="110" height="30" as="geometry" />
        </mxCell>
        <mxCell id="aq_8wqEdBt7ugzdirpVi-11" value="&lt;font style=&quot;font-size: 10px;&quot;&gt;Отчеты&lt;br&gt;&lt;/font&gt;" style="text;html=1;strokeColor=none;fillColor=none;align=center;verticalAlign=middle;whiteSpace=wrap;rounded=0;rotation=0;" parent="1" vertex="1">
          <mxGeometry x="1528.44" y="1012.5" width="110" height="10" as="geometry" />
        </mxCell>
        <mxCell id="aq_8wqEdBt7ugzdirpVi-12" value="&lt;font style=&quot;font-size: 10px;&quot;&gt;Расходные материалы&lt;br&gt;&lt;/font&gt;" style="text;html=1;strokeColor=none;fillColor=none;align=center;verticalAlign=middle;whiteSpace=wrap;rounded=0;rotation=0;" parent="1" vertex="1">
          <mxGeometry x="1348.44" y="892.5" width="110" height="30" as="geometry" />
        </mxCell>
        <mxCell id="aq_8wqEdBt7ugzdirpVi-14" value="&lt;font style=&quot;font-size: 10px;&quot;&gt;Данные о расходных&lt;br&gt;материалах&lt;br&gt;&lt;/font&gt;" style="text;html=1;strokeColor=none;fillColor=none;align=center;verticalAlign=middle;whiteSpace=wrap;rounded=0;rotation=0;" parent="1" vertex="1">
          <mxGeometry x="828.44" y="817.5" width="110" height="20" as="geometry" />
        </mxCell>
        <mxCell id="aq_8wqEdBt7ugzdirpVi-16" value="&lt;font style=&quot;font-size: 10px;&quot;&gt;Идентификатор администратора&lt;br&gt;&lt;/font&gt;" style="text;html=1;strokeColor=none;fillColor=none;align=center;verticalAlign=middle;whiteSpace=wrap;rounded=0;rotation=0;" parent="1" vertex="1">
          <mxGeometry x="788.44" y="782.5" width="160" height="20" as="geometry" />
        </mxCell>
        <mxCell id="aq_8wqEdBt7ugzdirpVi-22" value="" style="endArrow=none;html=1;rounded=0;" parent="1" edge="1">
          <mxGeometry width="50" height="50" relative="1" as="geometry">
            <mxPoint x="1048.44" y="1102.5" as="sourcePoint" />
            <mxPoint x="1448.44" y="1102.5" as="targetPoint" />
          </mxGeometry>
        </mxCell>
        <mxCell id="aq_8wqEdBt7ugzdirpVi-24" value="&lt;font style=&quot;font-size: 10px;&quot;&gt;Система&lt;br&gt;&lt;/font&gt;" style="text;html=1;strokeColor=none;fillColor=none;align=center;verticalAlign=middle;whiteSpace=wrap;rounded=0;rotation=0;" parent="1" vertex="1">
          <mxGeometry x="1098.44" y="1082.5" width="110" height="30" as="geometry" />
        </mxCell>
        <mxCell id="aq_8wqEdBt7ugzdirpVi-28" value="&lt;font style=&quot;font-size: 10px;&quot;&gt;Данные о заказе расходных материалов&lt;br&gt;&lt;/font&gt;" style="text;html=1;strokeColor=none;fillColor=none;align=center;verticalAlign=middle;whiteSpace=wrap;rounded=0;rotation=0;" parent="1" vertex="1">
          <mxGeometry x="1148.44" y="782.5" width="200" height="20" as="geometry" />
        </mxCell>
        <mxCell id="aq_8wqEdBt7ugzdirpVi-29" value="71" style="text;html=1;strokeColor=none;fillColor=none;align=center;verticalAlign=middle;whiteSpace=wrap;rounded=0;" parent="1" vertex="1">
          <mxGeometry x="1118.44" y="852.5" width="10" height="20" as="geometry" />
        </mxCell>
        <mxCell id="aq_8wqEdBt7ugzdirpVi-30" value="72" style="text;html=1;strokeColor=none;fillColor=none;align=center;verticalAlign=middle;whiteSpace=wrap;rounded=0;" parent="1" vertex="1">
          <mxGeometry x="1288.44" y="962.5" width="10" height="20" as="geometry" />
        </mxCell>
        <mxCell id="aq_8wqEdBt7ugzdirpVi-31" value="73" style="text;html=1;strokeColor=none;fillColor=none;align=center;verticalAlign=middle;whiteSpace=wrap;rounded=0;" parent="1" vertex="1">
          <mxGeometry x="1518.44" y="1052.5" width="10" height="20" as="geometry" />
        </mxCell>
      </root>
    </mxGraphModel>
  </diagram>
  <diagram id="30CSTh-y9SVbLgZfz-_A" name="Страница — 2">
    <mxGraphModel dx="5413" dy="2800" grid="1" gridSize="10" guides="1" tooltips="1" connect="1" arrows="1" fold="1" page="1" pageScale="1" pageWidth="3300" pageHeight="2339" math="0" shadow="0">
      <root>
        <mxCell id="0" />
        <mxCell id="1" parent="0" />
      </root>
    </mxGraphModel>
  </diagram>
</mxfile>
